<?xml version="1.0" encoding="UTF-8"?>
<svg id="Layer_1" data-name="Layer 1" xmlns="http://www.w3.org/2000/svg" xmlns:xlink="http://www.w3.org/1999/xlink" viewBox="0 0 475.45 547.71">
  <defs>
    <style>
      .cls-1 {
        stroke-linecap: square;
        stroke-width: 1.25px;
      }

      .cls-1, .cls-2, .cls-3, .cls-4, .cls-5, .cls-6, .cls-7, .cls-8 {
        fill: none;
      }

      .cls-1, .cls-2, .cls-7 {
        stroke: #ccc;
      }

      .cls-1, .cls-7 {
        stroke-miterlimit: 10;
      }

      .cls-9 {
        clip-path: url(#clippath-21);
      }

      .cls-10 {
        clip-path: url(#clippath-6);
      }

      .cls-11 {
        clip-path: url(#clippath-7);
      }

      .cls-12 {
        clip-path: url(#clippath-17);
      }

      .cls-13 {
        clip-path: url(#clippath-31);
      }

      .cls-14 {
        clip-path: url(#clippath-15);
      }

      .cls-15 {
        clip-path: url(#clippath-18);
      }

      .cls-16 {
        clip-path: url(#clippath-4);
      }

      .cls-17 {
        fill: #e41a1c;
      }

      .cls-17, .cls-6, .cls-8, .cls-18 {
        opacity: .2;
      }

      .cls-19 {
        clip-path: url(#clippath-22);
      }

      .cls-20 {
        clip-path: url(#clippath-23);
      }

      .cls-2, .cls-3, .cls-5 {
        stroke-linecap: round;
      }

      .cls-2, .cls-3, .cls-5, .cls-6, .cls-8 {
        stroke-linejoin: round;
      }

      .cls-21 {
        clip-path: url(#clippath-9);
      }

      .cls-22 {
        clip-path: url(#clippath-10);
      }

      .cls-23 {
        fill: #fff;
      }

      .cls-24 {
        clip-path: url(#clippath-25);
      }

      .cls-25 {
        clip-path: url(#clippath-27);
      }

      .cls-3, .cls-5 {
        stroke-width: 1.5px;
      }

      .cls-3, .cls-6 {
        stroke: #377eb8;
      }

      .cls-26, .cls-27, .cls-28, .cls-29 {
        fill: #262626;
      }

      .cls-30 {
        clip-path: url(#clippath-11);
      }

      .cls-31 {
        clip-path: url(#clippath-28);
      }

      .cls-32 {
        clip-path: url(#clippath-1);
      }

      .cls-27 {
        font-size: 12px;
      }

      .cls-27, .cls-28 {
        font-family: 'HarmonyOS_Sans_SC', 'HarmonyOS Sans SC';
      }

      .cls-33 {
        clip-path: url(#clippath-5);
      }

      .cls-34 {
        clip-path: url(#clippath-20);
      }

      .cls-35 {
        clip-path: url(#clippath-8);
      }

      .cls-36 {
        clip-path: url(#clippath-3);
      }

      .cls-37 {
        clip-path: url(#clippath-26);
      }

      .cls-38 {
        clip-path: url(#clippath-12);
      }

      .cls-39 {
        clip-path: url(#clippath-14);
      }

      .cls-28, .cls-29 {
        font-size: 11px;
      }

      .cls-5, .cls-8 {
        stroke: #e41a1c;
      }

      .cls-40 {
        clip-path: url(#clippath-30);
      }

      .cls-41 {
        clip-path: url(#clippath-19);
      }

      .cls-42 {
        clip-path: url(#clippath-16);
      }

      .cls-43 {
        clip-path: url(#clippath-2);
      }

      .cls-44 {
        clip-path: url(#clippath-29);
      }

      .cls-18 {
        fill: #377eb8;
      }

      .cls-45 {
        clip-path: url(#clippath-13);
      }

      .cls-46 {
        clip-path: url(#clippath-24);
      }

      .cls-47 {
        clip-path: url(#clippath);
      }

      .cls-29 {
        font-family: 'HarmonyOS_Sans', 'HarmonyOS Sans';
      }
    </style>
    <clipPath id="clippath">
      <rect class="cls-4" x="59.85" y="7.2" width="408.39" height="230.46"/>
    </clipPath>
    <clipPath id="clippath-1">
      <rect class="cls-4" x="59.85" y="7.2" width="408.39" height="230.46"/>
    </clipPath>
    <clipPath id="clippath-2">
      <rect class="cls-4" x="59.85" y="7.2" width="408.39" height="230.46"/>
    </clipPath>
    <clipPath id="clippath-3">
      <rect class="cls-4" x="59.85" y="7.2" width="408.39" height="230.46"/>
    </clipPath>
    <clipPath id="clippath-4">
      <rect class="cls-4" x="59.85" y="7.2" width="408.39" height="230.46"/>
    </clipPath>
    <clipPath id="clippath-5">
      <rect class="cls-4" x="59.85" y="7.2" width="408.39" height="230.46"/>
    </clipPath>
    <clipPath id="clippath-6">
      <rect class="cls-4" x="59.85" y="7.2" width="408.39" height="230.46"/>
    </clipPath>
    <clipPath id="clippath-7">
      <rect class="cls-4" x="59.85" y="7.2" width="408.39" height="230.46"/>
    </clipPath>
    <clipPath id="clippath-8">
      <rect class="cls-4" x="59.85" y="7.2" width="408.39" height="230.46"/>
    </clipPath>
    <clipPath id="clippath-9">
      <rect class="cls-4" x="59.85" y="7.2" width="408.39" height="230.46"/>
    </clipPath>
    <clipPath id="clippath-10">
      <rect class="cls-4" x="59.85" y="7.2" width="408.39" height="230.46"/>
    </clipPath>
    <clipPath id="clippath-11">
      <rect class="cls-4" x="59.85" y="7.2" width="408.39" height="230.46"/>
    </clipPath>
    <clipPath id="clippath-12">
      <rect class="cls-4" x="59.85" y="7.2" width="408.39" height="230.46"/>
    </clipPath>
    <clipPath id="clippath-13">
      <rect class="cls-4" x="59.85" y="7.2" width="408.39" height="230.46"/>
    </clipPath>
    <clipPath id="clippath-14">
      <rect class="cls-4" x="59.85" y="273.72" width="408.39" height="230.46"/>
    </clipPath>
    <clipPath id="clippath-15">
      <rect class="cls-4" x="59.85" y="273.72" width="408.39" height="230.46"/>
    </clipPath>
    <clipPath id="clippath-16">
      <rect class="cls-4" x="59.85" y="273.72" width="408.39" height="230.46"/>
    </clipPath>
    <clipPath id="clippath-17">
      <rect class="cls-4" x="59.85" y="273.72" width="408.39" height="230.46"/>
    </clipPath>
    <clipPath id="clippath-18">
      <rect class="cls-4" x="59.85" y="273.72" width="408.39" height="230.46"/>
    </clipPath>
    <clipPath id="clippath-19">
      <rect class="cls-4" x="59.85" y="273.72" width="408.39" height="230.46"/>
    </clipPath>
    <clipPath id="clippath-20">
      <rect class="cls-4" x="59.85" y="273.72" width="408.39" height="230.46"/>
    </clipPath>
    <clipPath id="clippath-21">
      <rect class="cls-4" x="59.85" y="273.72" width="408.39" height="230.46"/>
    </clipPath>
    <clipPath id="clippath-22">
      <rect class="cls-4" x="59.85" y="273.72" width="408.39" height="230.46"/>
    </clipPath>
    <clipPath id="clippath-23">
      <rect class="cls-4" x="59.85" y="273.72" width="408.39" height="230.46"/>
    </clipPath>
    <clipPath id="clippath-24">
      <rect class="cls-4" x="59.85" y="273.72" width="408.39" height="230.46"/>
    </clipPath>
    <clipPath id="clippath-25">
      <rect class="cls-4" x="59.85" y="273.72" width="408.39" height="230.46"/>
    </clipPath>
    <clipPath id="clippath-26">
      <rect class="cls-4" x="59.85" y="273.72" width="408.39" height="230.46"/>
    </clipPath>
    <clipPath id="clippath-27">
      <rect class="cls-4" x="59.85" y="273.72" width="408.39" height="230.46"/>
    </clipPath>
    <clipPath id="clippath-28">
      <rect class="cls-4" x="59.85" y="273.72" width="408.39" height="230.46"/>
    </clipPath>
    <clipPath id="clippath-29">
      <rect class="cls-4" x="59.85" y="273.72" width="408.39" height="230.46"/>
    </clipPath>
    <clipPath id="clippath-30">
      <rect class="cls-4" x="59.85" y="273.72" width="408.39" height="230.46"/>
    </clipPath>
    <clipPath id="clippath-31">
      <rect class="cls-4" x="59.85" y="273.72" width="408.39" height="230.46"/>
    </clipPath>
  </defs>
  <rect class="cls-23" width="475.45" height="547.71"/>
  <rect class="cls-23" x="59.85" y="7.2" width="408.39" height="230.46"/>
  <g class="cls-47">
    <line class="cls-2" x1="78.42" y1="237.66" x2="78.42" y2="7.2"/>
    <line class="cls-2" x1="140.29" y1="237.66" x2="140.29" y2="7.2"/>
    <line class="cls-2" x1="202.17" y1="237.66" x2="202.17" y2="7.2"/>
    <line class="cls-2" x1="264.05" y1="237.66" x2="264.05" y2="7.2"/>
    <line class="cls-2" x1="325.93" y1="237.66" x2="325.93" y2="7.2"/>
    <line class="cls-2" x1="387.81" y1="237.66" x2="387.81" y2="7.2"/>
    <line class="cls-2" x1="449.68" y1="237.66" x2="449.68" y2="7.2"/>
  </g>
  <g class="cls-32">
    <line class="cls-2" x1="59.85" y1="229.16" x2="468.25" y2="229.16"/>
  </g>
  <path class="cls-26" d="M27.29,246.46c.78.78,1.44,1.27,1.99,1.46.56.2,1.03.11,1.41-.27.37-.37.47-.84.28-1.4-.19-.55-.68-1.23-1.46-2.01-.78-.78-1.45-1.27-2.01-1.47-.57-.19-1.04-.11-1.42.26-.38.38-.47.86-.26,1.42.2.56.7,1.23,1.48,2.01ZM30.25,243.5c.96.96,1.53,1.86,1.7,2.67.18.82-.04,1.52-.63,2.11-.59.59-1.29.81-2.11.63s-1.7-.75-2.66-1.71c-.96-.96-1.54-1.85-1.72-2.67-.18-.82.02-1.53.61-2.12.59-.59,1.3-.8,2.12-.62s1.72.75,2.68,1.72Z"/>
  <path class="cls-26" d="M34.43,245.17c-.12.12-.27.18-.44.18s-.31-.06-.44-.19c-.12-.12-.19-.26-.19-.44,0-.17.05-.32.18-.44s.27-.18.44-.18c.18,0,.33.06.45.19s.19.28.19.45c0,.16-.06.31-.19.44Z"/>
  <path class="cls-26" d="M34.64,239.21c.33-.33.49-.71.47-1.13s-.2-.81-.56-1.17c-.35-.35-.73-.53-1.15-.54s-.79.14-1.13.47c-.33.33-.49.71-.47,1.13s.21.8.55,1.14c.36.36.74.55,1.16.57.41.02.79-.13,1.13-.47ZM31.64,236.21c.36-.36.75-.6,1.19-.72s.87-.12,1.31,0,.83.37,1.19.72c.28.28.49.6.62.93.13.33.28.81.43,1.42l.88,3.6-.79.79-.74-3.09c-.04-.18-.08-.36-.1-.54-.11.22-.26.42-.46.61-.34.34-.72.56-1.14.66-.42.11-.85.1-1.28-.03-.42-.12-.79-.36-1.13-.69-.34-.34-.58-.73-.7-1.17-.12-.44-.12-.88,0-1.31.12-.44.36-.84.71-1.19Z"/>
  <path class="cls-26" d="M40.52,237.69l2.57-2.57.61.61-3.63,3.63-.44-.44-.21-3.9c-.04-.72-.1-1.27-.19-1.62-.09-.34-.26-.65-.53-.92-.33-.33-.68-.49-1.04-.5-.37,0-.68.14-.96.41-.28.28-.43.63-.45,1.03-.03.4.07.8.29,1.21l-.88.24c-.31-.53-.42-1.09-.31-1.66.1-.57.35-1.07.77-1.49.3-.3.65-.51,1.02-.63s.75-.13,1.15-.03.77.32,1.11.66c.34.34.58.75.71,1.21.13.47.23,1.14.26,2.01l.14,2.75Z"/>
  <polygon class="cls-26" points="44.17 228.36 45.77 229.96 46.58 229.14 47.18 229.74 46.37 230.56 47.63 231.82 46.93 232.51 45.67 231.25 43.15 233.77 42.67 233.29 40.85 227.19 41.61 226.44 43.36 232.36 45.07 230.65 43.48 229.06 44.17 228.36"/>
  <g class="cls-43">
    <line class="cls-2" x1="59.85" y1="203.26" x2="468.25" y2="203.26"/>
  </g>
  <path class="cls-26" d="M27.29,220.56c.78.78,1.44,1.27,1.99,1.46.56.2,1.03.11,1.41-.27.37-.37.47-.84.28-1.4-.19-.55-.68-1.23-1.46-2.01-.78-.78-1.45-1.27-2.01-1.47-.57-.19-1.04-.11-1.42.26-.38.38-.47.86-.26,1.42.2.56.7,1.23,1.48,2.01ZM30.25,217.6c.96.96,1.53,1.86,1.7,2.67.18.82-.04,1.52-.63,2.11-.59.59-1.29.81-2.11.63s-1.7-.75-2.66-1.71c-.96-.96-1.54-1.85-1.72-2.67-.18-.82.02-1.53.61-2.12.59-.59,1.3-.8,2.12-.62s1.72.75,2.68,1.72Z"/>
  <path class="cls-26" d="M34.43,219.27c-.12.12-.27.18-.44.18s-.31-.06-.44-.19c-.12-.12-.19-.26-.19-.44,0-.17.05-.32.18-.44s.27-.18.44-.18c.18,0,.33.06.45.19s.19.28.19.45c0,.16-.06.31-.19.44Z"/>
  <path class="cls-26" d="M34.64,213.31c.33-.33.49-.71.47-1.13s-.2-.81-.56-1.17c-.35-.35-.73-.53-1.15-.54s-.79.14-1.13.47c-.33.33-.49.71-.47,1.13s.21.8.55,1.14c.36.36.74.55,1.16.57.41.02.79-.13,1.13-.47ZM31.64,210.32c.36-.36.75-.6,1.19-.72s.87-.12,1.31,0,.83.37,1.19.72c.28.28.49.6.62.93.13.33.28.81.43,1.42l.88,3.6-.79.79-.74-3.09c-.04-.18-.08-.36-.1-.54-.11.22-.26.42-.46.61-.34.34-.72.56-1.14.66-.42.11-.85.1-1.28-.03-.42-.12-.79-.36-1.13-.69-.34-.34-.58-.73-.7-1.17-.12-.44-.12-.88,0-1.31.12-.44.36-.84.71-1.19Z"/>
  <path class="cls-26" d="M40.52,211.79l2.57-2.57.61.61-3.63,3.63-.44-.44-.21-3.9c-.04-.72-.1-1.27-.19-1.62-.09-.34-.26-.65-.53-.92-.33-.33-.68-.49-1.04-.5-.37,0-.68.14-.96.41-.28.28-.43.63-.45,1.03-.03.4.07.8.29,1.21l-.88.24c-.31-.53-.42-1.09-.31-1.66.1-.57.35-1.07.77-1.49.3-.3.65-.51,1.02-.63s.75-.13,1.15-.03.77.32,1.11.66c.34.34.58.75.71,1.21.13.47.23,1.14.26,2.01l.14,2.75Z"/>
  <path class="cls-26" d="M45.85,206.61c.33-.33.48-.7.47-1.12-.02-.42-.19-.8-.54-1.15s-.74-.54-1.15-.56c-.42-.02-.8.13-1.14.47-.34.34-.49.72-.47,1.14.02.42.21.8.56,1.15.36.36.73.54,1.15.56s.79-.15,1.13-.49ZM42.95,203.5c.33-.33.72-.55,1.14-.66.43-.1.85-.09,1.27.04.43.13.81.36,1.14.68.34.34.57.74.69,1.17.12.44.12.88,0,1.31s-.37.83-.71,1.17c-.36.36-.75.6-1.18.73-.44.12-.87.12-1.31,0s-.83-.37-1.19-.72c-.28-.28-.49-.58-.62-.92-.13-.33-.27-.82-.43-1.44l-.88-3.6.79-.79.74,3.09c.04.19.08.37.1.54.11-.2.26-.41.46-.61Z"/>
  <g class="cls-36">
    <line class="cls-2" x1="59.85" y1="177.36" x2="468.25" y2="177.36"/>
  </g>
  <path class="cls-26" d="M27.29,194.66c.78.78,1.44,1.27,1.99,1.46.56.2,1.03.11,1.41-.27.37-.37.47-.84.28-1.4-.19-.55-.68-1.23-1.46-2.01-.78-.78-1.45-1.27-2.01-1.47-.57-.19-1.04-.11-1.42.26-.38.38-.47.86-.26,1.42.2.56.7,1.23,1.48,2.01ZM30.25,191.71c.96.96,1.53,1.86,1.7,2.67.18.82-.04,1.52-.63,2.11-.59.59-1.29.81-2.11.63s-1.7-.75-2.66-1.71c-.96-.96-1.54-1.85-1.72-2.67-.18-.82.02-1.53.61-2.12.59-.59,1.3-.8,2.12-.62s1.72.75,2.68,1.72Z"/>
  <path class="cls-26" d="M34.43,193.37c-.12.12-.27.18-.44.18s-.31-.06-.44-.19c-.12-.12-.19-.26-.19-.44,0-.17.05-.32.18-.44s.27-.18.44-.18c.18,0,.33.06.45.19s.19.28.19.45c0,.16-.06.31-.19.44Z"/>
  <path class="cls-26" d="M34.64,187.41c.33-.33.49-.71.47-1.13s-.2-.81-.56-1.17c-.35-.35-.73-.53-1.15-.54s-.79.14-1.13.47c-.33.33-.49.71-.47,1.13s.21.8.55,1.14c.36.36.74.55,1.16.57.41.02.79-.13,1.13-.47ZM31.64,184.42c.36-.36.75-.6,1.19-.72s.87-.12,1.31,0,.83.37,1.19.72c.28.28.49.6.62.93.13.33.28.81.43,1.42l.88,3.6-.79.79-.74-3.09c-.04-.18-.08-.36-.1-.54-.11.22-.26.42-.46.61-.34.34-.72.56-1.14.66-.42.11-.85.1-1.28-.03-.42-.12-.79-.36-1.13-.69-.34-.34-.58-.73-.7-1.17-.12-.44-.12-.88,0-1.31.12-.44.36-.84.71-1.19Z"/>
  <path class="cls-26" d="M40.52,185.9l2.57-2.57.61.61-3.63,3.63-.44-.44-.21-3.9c-.04-.72-.1-1.27-.19-1.62-.09-.34-.26-.65-.53-.92-.33-.33-.68-.49-1.04-.5-.37,0-.68.14-.96.41-.28.28-.43.63-.45,1.03-.03.4.07.8.29,1.21l-.88.24c-.31-.53-.42-1.09-.31-1.66.1-.57.35-1.07.77-1.49.3-.3.65-.51,1.02-.63s.75-.13,1.15-.03.77.32,1.11.66c.34.34.58.75.71,1.21.13.47.23,1.14.26,2.01l.14,2.75Z"/>
  <path class="cls-26" d="M45.82,180.76c.33-.33.51-.69.51-1.1,0-.4-.16-.76-.5-1.1-.34-.34-.72-.51-1.11-.52-.4,0-.77.16-1.11.51-.35.35-.52.72-.52,1.13s.18.77.52,1.11.72.51,1.11.51.76-.19,1.1-.53ZM41.17,176.1c-.3.3-.44.61-.44.94,0,.34.14.64.4.9.26.26.56.4.89.4.34,0,.65-.15.94-.44.28-.28.43-.58.43-.93,0-.33-.13-.63-.4-.89-.26-.26-.56-.39-.89-.4-.34,0-.65.14-.93.42ZM44.14,177.32c.44-.16.86-.19,1.28-.1.44.09.82.3,1.15.64.33.33.54.69.64,1.1.1.41.09.82-.05,1.24s-.37.81-.73,1.17c-.37.37-.76.62-1.18.76-.42.14-.84.16-1.26.05-.41-.1-.78-.31-1.1-.64-.33-.33-.55-.71-.65-1.14-.09-.43-.05-.86.12-1.3-.37.12-.72.14-1.06.06-.35-.07-.65-.25-.92-.51-.26-.26-.44-.58-.54-.96-.09-.37-.07-.74.05-1.13.12-.38.33-.74.66-1.07.31-.31.66-.52,1.04-.64s.75-.12,1.11-.04c.36.09.68.27.95.54.26.26.44.58.52.91.08.34.06.68-.05,1.04Z"/>
  <g class="cls-16">
    <line class="cls-2" x1="59.85" y1="151.47" x2="468.25" y2="151.47"/>
  </g>
  <path class="cls-26" d="M27.29,168.77c.78.78,1.44,1.27,1.99,1.46.56.2,1.03.11,1.41-.27.37-.37.47-.84.28-1.4-.19-.55-.68-1.23-1.46-2.01-.78-.78-1.45-1.27-2.01-1.47-.57-.19-1.04-.11-1.42.26-.38.38-.47.86-.26,1.42.2.56.7,1.23,1.48,2.01ZM30.25,165.81c.96.96,1.53,1.86,1.7,2.67.18.82-.04,1.52-.63,2.11-.59.59-1.29.81-2.11.63s-1.7-.75-2.66-1.71c-.96-.96-1.54-1.85-1.72-2.67-.18-.82.02-1.53.61-2.12.59-.59,1.3-.8,2.12-.62s1.72.75,2.68,1.72Z"/>
  <path class="cls-26" d="M34.43,167.47c-.12.12-.27.18-.44.18s-.31-.06-.44-.19c-.12-.12-.19-.26-.19-.44,0-.17.05-.32.18-.44s.27-.18.44-.18c.18,0,.33.06.45.19s.19.28.19.45c0,.16-.06.31-.19.44Z"/>
  <path class="cls-26" d="M34.64,161.52c.33-.33.49-.71.47-1.13s-.2-.81-.56-1.17c-.35-.35-.73-.53-1.15-.54s-.79.14-1.13.47c-.33.33-.49.71-.47,1.13s.21.8.55,1.14c.36.36.74.55,1.16.57.41.02.79-.13,1.13-.47ZM31.64,158.52c.36-.36.75-.6,1.19-.72s.87-.12,1.31,0,.83.37,1.19.72c.28.28.49.6.62.93.13.33.28.81.43,1.42l.88,3.6-.79.79-.74-3.09c-.04-.18-.08-.36-.1-.54-.11.22-.26.42-.46.61-.34.34-.72.56-1.14.66-.42.11-.85.1-1.28-.03-.42-.12-.79-.36-1.13-.69-.34-.34-.58-.73-.7-1.17-.12-.44-.12-.88,0-1.31.12-.44.36-.84.71-1.19Z"/>
  <path class="cls-26" d="M39.65,156.02c.45-.23.88-.3,1.29-.23.42.08.8.29,1.16.65.36.36.58.75.67,1.17.09.43.06.84-.09,1.24-.16.4-.38.77-.71,1.1-.42.42-.9.7-1.46.84s-1.1.06-1.63-.23l.24-.88c.4.22.82.29,1.21.2.4-.09.74-.27,1.02-.55.3-.3.47-.65.48-1.04s-.14-.76-.48-1.1c-.69-.69-1.52-.57-2.47.38l-.24.24-.61-.63.27-.27c.38-.38.58-.76.59-1.15.02-.39-.12-.72-.41-1.02-.27-.27-.58-.4-.9-.39-.33.02-.63.16-.89.43-.28.28-.44.61-.47.96-.02.37.06.75.27,1.16l-.88.24c-.3-.54-.39-1.07-.3-1.6s.36-1.01.78-1.43c.48-.48,1.02-.74,1.59-.76.58-.02,1.08.19,1.52.64.29.29.47.61.55.96s.05.72-.11,1.1Z"/>
  <path class="cls-26" d="M42.39,153.67c.78.78,1.44,1.27,1.99,1.46.56.2,1.03.11,1.41-.27.37-.37.47-.84.28-1.4-.19-.55-.68-1.23-1.46-2.01s-1.45-1.27-2.01-1.47c-.57-.19-1.04-.11-1.42.26-.38.38-.47.86-.26,1.42.2.56.7,1.23,1.48,2.01ZM45.35,150.71c.96.96,1.53,1.86,1.7,2.67.18.82-.04,1.52-.63,2.11-.59.59-1.29.81-2.11.63-.82-.18-1.7-.75-2.66-1.71-.96-.96-1.54-1.85-1.72-2.67-.18-.82.02-1.53.61-2.12s1.3-.8,2.12-.62,1.72.75,2.68,1.72Z"/>
  <g class="cls-33">
    <line class="cls-2" x1="59.85" y1="125.57" x2="468.25" y2="125.57"/>
  </g>
  <path class="cls-26" d="M27.29,142.87c.78.78,1.44,1.27,1.99,1.46.56.2,1.03.11,1.41-.27.37-.37.47-.84.28-1.4-.19-.55-.68-1.23-1.46-2.01-.78-.78-1.45-1.27-2.01-1.47-.57-.19-1.04-.11-1.42.26-.38.38-.47.86-.26,1.42.2.56.7,1.23,1.48,2.01ZM30.25,139.91c.96.96,1.53,1.86,1.7,2.67.18.82-.04,1.52-.63,2.11-.59.59-1.29.81-2.11.63s-1.7-.75-2.66-1.71c-.96-.96-1.54-1.85-1.72-2.67-.18-.82.02-1.53.61-2.12.59-.59,1.3-.8,2.12-.62s1.72.75,2.68,1.72Z"/>
  <path class="cls-26" d="M34.43,141.58c-.12.12-.27.18-.44.18s-.31-.06-.44-.19c-.12-.12-.19-.26-.19-.44,0-.17.05-.32.18-.44s.27-.18.44-.18c.18,0,.33.06.45.19s.19.28.19.45c0,.16-.06.31-.19.44Z"/>
  <path class="cls-26" d="M34.64,135.62c.33-.33.49-.71.47-1.13s-.2-.81-.56-1.17c-.35-.35-.73-.53-1.15-.54s-.79.14-1.13.47c-.33.33-.49.71-.47,1.13s.21.8.55,1.14c.36.36.74.55,1.16.57.41.02.79-.13,1.13-.47ZM31.64,132.62c.36-.36.75-.6,1.19-.72s.87-.12,1.31,0,.83.37,1.19.72c.28.28.49.6.62.93.13.33.28.81.43,1.42l.88,3.6-.79.79-.74-3.09c-.04-.18-.08-.36-.1-.54-.11.22-.26.42-.46.61-.34.34-.72.56-1.14.66-.42.11-.85.1-1.28-.03-.42-.12-.79-.36-1.13-.69-.34-.34-.58-.73-.7-1.17-.12-.44-.12-.88,0-1.31.12-.44.36-.84.71-1.19Z"/>
  <path class="cls-26" d="M39.65,130.12c.45-.23.88-.3,1.29-.23.42.08.8.29,1.16.65.36.36.58.75.67,1.17.09.43.06.84-.09,1.24-.16.4-.38.77-.71,1.1-.42.42-.9.7-1.46.84s-1.1.06-1.63-.23l.24-.88c.4.22.82.29,1.21.2.4-.09.74-.27,1.02-.55.3-.3.47-.65.48-1.04s-.14-.76-.48-1.1c-.69-.69-1.52-.57-2.47.38l-.24.24-.61-.63.27-.27c.38-.38.58-.76.59-1.15.02-.39-.12-.72-.41-1.02-.27-.27-.58-.4-.9-.39-.33.02-.63.16-.89.43-.28.28-.44.61-.47.96-.02.37.06.75.27,1.16l-.88.24c-.3-.54-.39-1.07-.3-1.6s.36-1.01.78-1.43c.48-.48,1.02-.74,1.59-.76.58-.02,1.08.19,1.52.64.29.29.47.61.55.96s.05.72-.11,1.1Z"/>
  <path class="cls-26" d="M44.96,129.67l2.57-2.57.61.61-3.63,3.63-.44-.44-.21-3.9c-.04-.72-.1-1.27-.19-1.62-.09-.34-.26-.65-.53-.92-.33-.33-.68-.49-1.04-.5-.37,0-.68.14-.96.41-.28.28-.43.63-.45,1.03-.03.4.07.8.29,1.21l-.88.24c-.31-.53-.42-1.09-.31-1.66.1-.57.35-1.07.77-1.49.3-.3.65-.51,1.02-.63s.75-.13,1.15-.03.77.32,1.11.66c.34.34.58.75.71,1.21.13.47.23,1.14.26,2.01l.14,2.75Z"/>
  <g class="cls-10">
    <line class="cls-2" x1="59.85" y1="99.67" x2="468.25" y2="99.67"/>
  </g>
  <path class="cls-26" d="M27.29,116.97c.78.78,1.44,1.27,1.99,1.46.56.2,1.03.11,1.41-.27.37-.37.47-.84.28-1.4-.19-.55-.68-1.23-1.46-2.01-.78-.78-1.45-1.27-2.01-1.47-.57-.19-1.04-.11-1.42.26-.38.38-.47.86-.26,1.42.2.56.7,1.23,1.48,2.01ZM30.25,114.02c.96.96,1.53,1.86,1.7,2.67.18.82-.04,1.52-.63,2.11-.59.59-1.29.81-2.11.63s-1.7-.75-2.66-1.71c-.96-.96-1.54-1.85-1.72-2.67-.18-.82.02-1.53.61-2.12.59-.59,1.3-.8,2.12-.62s1.72.75,2.68,1.72Z"/>
  <path class="cls-26" d="M34.43,115.68c-.12.12-.27.18-.44.18s-.31-.06-.44-.19c-.12-.12-.19-.26-.19-.44,0-.17.05-.32.18-.44s.27-.18.44-.18c.18,0,.33.06.45.19s.19.28.19.45c0,.16-.06.31-.19.44Z"/>
  <path class="cls-26" d="M34.64,109.72c.33-.33.49-.71.47-1.13s-.2-.81-.56-1.17c-.35-.35-.73-.53-1.15-.54s-.79.14-1.13.47c-.33.33-.49.71-.47,1.13s.21.8.55,1.14c.36.36.74.55,1.16.57.41.02.79-.13,1.13-.47ZM31.64,106.73c.36-.36.75-.6,1.19-.72s.87-.12,1.31,0,.83.37,1.19.72c.28.28.49.6.62.93.13.33.28.81.43,1.42l.88,3.6-.79.79-.74-3.09c-.04-.18-.08-.36-.1-.54-.11.22-.26.42-.46.61-.34.34-.72.56-1.14.66-.42.11-.85.1-1.28-.03-.42-.12-.79-.36-1.13-.69-.34-.34-.58-.73-.7-1.17-.12-.44-.12-.88,0-1.31.12-.44.36-.84.71-1.19Z"/>
  <path class="cls-26" d="M39.65,104.22c.45-.23.88-.3,1.29-.23.42.08.8.29,1.16.65.36.36.58.75.67,1.17.09.43.06.84-.09,1.24-.16.4-.38.77-.71,1.1-.42.42-.9.7-1.46.84s-1.1.06-1.63-.23l.24-.88c.4.22.82.29,1.21.2.4-.09.74-.27,1.02-.55.3-.3.47-.65.48-1.04s-.14-.76-.48-1.1c-.69-.69-1.52-.57-2.47.38l-.24.24-.61-.63.27-.27c.38-.38.58-.76.59-1.15.02-.39-.12-.72-.41-1.02-.27-.27-.58-.4-.9-.39-.33.02-.63.16-.89.43-.28.28-.44.61-.47.96-.02.37.06.75.27,1.16l-.88.24c-.3-.54-.39-1.07-.3-1.6s.36-1.01.78-1.43c.48-.48,1.02-.74,1.59-.76.58-.02,1.08.19,1.52.64.29.29.47.61.55.96s.05.72-.11,1.1Z"/>
  <polygon class="cls-26" points="44.17 98.88 45.77 100.47 46.58 99.66 47.18 100.26 46.37 101.07 47.63 102.33 46.93 103.03 45.67 101.77 43.15 104.29 42.67 103.8 40.85 97.71 41.61 96.95 43.36 102.88 45.07 101.17 43.48 99.57 44.17 98.88"/>
  <g class="cls-11">
    <line class="cls-2" x1="59.85" y1="73.78" x2="468.25" y2="73.78"/>
  </g>
  <path class="cls-26" d="M27.29,91.07c.78.78,1.44,1.27,1.99,1.46.56.2,1.03.11,1.41-.27.37-.37.47-.84.28-1.4-.19-.55-.68-1.23-1.46-2.01-.78-.78-1.45-1.27-2.01-1.47-.57-.19-1.04-.11-1.42.26-.38.38-.47.86-.26,1.42.2.56.7,1.23,1.48,2.01ZM30.25,88.12c.96.96,1.53,1.86,1.7,2.67.18.82-.04,1.52-.63,2.11-.59.59-1.29.81-2.11.63s-1.7-.75-2.66-1.71c-.96-.96-1.54-1.85-1.72-2.67-.18-.82.02-1.53.61-2.12.59-.59,1.3-.8,2.12-.62s1.72.75,2.68,1.72Z"/>
  <path class="cls-26" d="M34.43,89.78c-.12.12-.27.18-.44.18s-.31-.06-.44-.19c-.12-.12-.19-.26-.19-.44,0-.17.05-.32.18-.44s.27-.18.44-.18c.18,0,.33.06.45.19s.19.28.19.45c0,.16-.06.31-.19.44Z"/>
  <path class="cls-26" d="M34.64,83.83c.33-.33.49-.71.47-1.13s-.2-.81-.56-1.17c-.35-.35-.73-.53-1.15-.54s-.79.14-1.13.47c-.33.33-.49.71-.47,1.13s.21.8.55,1.14c.36.36.74.55,1.16.57.41.02.79-.13,1.13-.47ZM31.64,80.83c.36-.36.75-.6,1.19-.72s.87-.12,1.31,0,.83.37,1.19.72c.28.28.49.6.62.93.13.33.28.81.43,1.42l.88,3.6-.79.79-.74-3.09c-.04-.18-.08-.36-.1-.54-.11.22-.26.42-.46.61-.34.34-.72.56-1.14.66-.42.11-.85.1-1.28-.03-.42-.12-.79-.36-1.13-.69-.34-.34-.58-.73-.7-1.17-.12-.44-.12-.88,0-1.31.12-.44.36-.84.71-1.19Z"/>
  <path class="cls-26" d="M39.65,78.33c.45-.23.88-.3,1.29-.23.42.08.8.29,1.16.65.36.36.58.75.67,1.17.09.43.06.84-.09,1.24-.16.4-.38.77-.71,1.1-.42.42-.9.7-1.46.84s-1.1.06-1.63-.23l.24-.88c.4.22.82.29,1.21.2.4-.09.74-.27,1.02-.55.3-.3.47-.65.48-1.04s-.14-.76-.48-1.1c-.69-.69-1.52-.57-2.47.38l-.24.24-.61-.63.27-.27c.38-.38.58-.76.59-1.15.02-.39-.12-.72-.41-1.02-.27-.27-.58-.4-.9-.39-.33.02-.63.16-.89.43-.28.28-.44.61-.47.96-.02.37.06.75.27,1.16l-.88.24c-.3-.54-.39-1.07-.3-1.6s.36-1.01.78-1.43c.48-.48,1.02-.74,1.59-.76.58-.02,1.08.19,1.52.64.29.29.47.61.55.96s.05.72-.11,1.1Z"/>
  <path class="cls-26" d="M45.85,77.12c.33-.33.48-.7.47-1.12-.02-.42-.19-.8-.54-1.15s-.74-.54-1.15-.56c-.42-.02-.8.13-1.14.47-.34.34-.49.72-.47,1.14.02.42.21.8.56,1.15.36.36.73.54,1.15.56s.79-.15,1.13-.49ZM42.95,74.02c.33-.33.72-.55,1.14-.66.43-.1.85-.09,1.27.04.43.13.81.36,1.14.68.34.34.57.74.69,1.17.12.44.12.88,0,1.31s-.37.83-.71,1.17c-.36.36-.75.6-1.18.73-.44.12-.87.12-1.31,0s-.83-.37-1.19-.72c-.28-.28-.49-.58-.62-.92-.13-.33-.27-.82-.43-1.44l-.88-3.6.79-.79.74,3.09c.04.19.08.37.1.54.11-.2.26-.41.46-.61Z"/>
  <g class="cls-35">
    <line class="cls-2" x1="59.85" y1="47.88" x2="468.25" y2="47.88"/>
  </g>
  <path class="cls-26" d="M27.29,65.18c.78.78,1.44,1.27,1.99,1.46.56.2,1.03.11,1.41-.27.37-.37.47-.84.28-1.4-.19-.55-.68-1.23-1.46-2.01-.78-.78-1.45-1.27-2.01-1.47-.57-.19-1.04-.11-1.42.26-.38.38-.47.86-.26,1.42.2.56.7,1.23,1.48,2.01ZM30.25,62.22c.96.96,1.53,1.86,1.7,2.67.18.82-.04,1.52-.63,2.11-.59.59-1.29.81-2.11.63s-1.7-.75-2.66-1.71c-.96-.96-1.54-1.85-1.72-2.67-.18-.82.02-1.53.61-2.12.59-.59,1.3-.8,2.12-.62s1.72.75,2.68,1.72Z"/>
  <path class="cls-26" d="M34.43,63.89c-.12.12-.27.18-.44.18s-.31-.06-.44-.19c-.12-.12-.19-.26-.19-.44,0-.17.05-.32.18-.44s.27-.18.44-.18c.18,0,.33.06.45.19s.19.28.19.45c0,.16-.06.31-.19.44Z"/>
  <path class="cls-26" d="M34.64,57.93c.33-.33.49-.71.47-1.13s-.2-.81-.56-1.17c-.35-.35-.73-.53-1.15-.54s-.79.14-1.13.47c-.33.33-.49.71-.47,1.13s.21.8.55,1.14c.36.36.74.55,1.16.57.41.02.79-.13,1.13-.47ZM31.64,54.93c.36-.36.75-.6,1.19-.72s.87-.12,1.31,0,.83.37,1.19.72c.28.28.49.6.62.93.13.33.28.81.43,1.42l.88,3.6-.79.79-.74-3.09c-.04-.18-.08-.36-.1-.54-.11.22-.26.42-.46.61-.34.34-.72.56-1.14.66-.42.11-.85.1-1.28-.03-.42-.12-.79-.36-1.13-.69-.34-.34-.58-.73-.7-1.17-.12-.44-.12-.88,0-1.31.12-.44.36-.84.71-1.19Z"/>
  <path class="cls-26" d="M39.65,52.43c.45-.23.88-.3,1.29-.23.42.08.8.29,1.16.65.36.36.58.75.67,1.17.09.43.06.84-.09,1.24-.16.4-.38.77-.71,1.1-.42.42-.9.7-1.46.84s-1.1.06-1.63-.23l.24-.88c.4.22.82.29,1.21.2.4-.09.74-.27,1.02-.55.3-.3.47-.65.48-1.04s-.14-.76-.48-1.1c-.69-.69-1.52-.57-2.47.38l-.24.24-.61-.63.27-.27c.38-.38.58-.76.59-1.15.02-.39-.12-.72-.41-1.02-.27-.27-.58-.4-.9-.39-.33.02-.63.16-.89.43-.28.28-.44.61-.47.96-.02.37.06.75.27,1.16l-.88.24c-.3-.54-.39-1.07-.3-1.6s.36-1.01.78-1.43c.48-.48,1.02-.74,1.59-.76.58-.02,1.08.19,1.52.64.29.29.47.61.55.96s.05.72-.11,1.1Z"/>
  <path class="cls-26" d="M45.82,51.27c.33-.33.51-.69.51-1.1,0-.4-.16-.76-.5-1.1-.34-.34-.72-.51-1.11-.52-.4,0-.77.16-1.11.51-.35.35-.52.72-.52,1.13s.18.77.52,1.11.72.51,1.11.51.76-.19,1.1-.53ZM41.17,46.62c-.3.3-.44.61-.44.94,0,.34.14.64.4.9.26.26.56.4.89.4.34,0,.65-.15.94-.44.28-.28.43-.58.43-.93,0-.33-.13-.63-.4-.89-.26-.26-.56-.39-.89-.4-.34,0-.65.14-.93.42ZM44.14,47.83c.44-.16.86-.19,1.28-.1.44.09.82.3,1.15.64.33.33.54.69.64,1.1.1.41.09.82-.05,1.24s-.37.81-.73,1.17c-.37.37-.76.62-1.18.76-.42.14-.84.16-1.26.05-.41-.1-.78-.31-1.1-.64-.33-.33-.55-.71-.65-1.14-.09-.43-.05-.86.12-1.3-.37.12-.72.14-1.06.06-.35-.07-.65-.25-.92-.51-.26-.26-.44-.58-.54-.96-.09-.37-.07-.74.05-1.13.12-.38.33-.74.66-1.07.31-.31.66-.52,1.04-.64s.75-.12,1.11-.04c.36.09.68.27.95.54.26.26.44.58.52.91.08.34.06.68-.05,1.04Z"/>
  <g class="cls-21">
    <line class="cls-2" x1="59.85" y1="21.98" x2="468.25" y2="21.98"/>
  </g>
  <path class="cls-26" d="M27.29,39.28c.78.78,1.44,1.27,1.99,1.46.56.2,1.03.11,1.41-.27.37-.37.47-.84.28-1.4-.19-.55-.68-1.23-1.46-2.01-.78-.78-1.45-1.27-2.01-1.47-.57-.19-1.04-.11-1.42.26-.38.38-.47.86-.26,1.42.2.56.7,1.23,1.48,2.01ZM30.25,36.32c.96.96,1.53,1.86,1.7,2.67.18.82-.04,1.52-.63,2.11-.59.59-1.29.81-2.11.63s-1.7-.75-2.66-1.71c-.96-.96-1.54-1.85-1.72-2.67-.18-.82.02-1.53.61-2.12.59-.59,1.3-.8,2.12-.62s1.72.75,2.68,1.72Z"/>
  <path class="cls-26" d="M34.43,37.99c-.12.12-.27.18-.44.18s-.31-.06-.44-.19c-.12-.12-.19-.26-.19-.44,0-.17.05-.32.18-.44s.27-.18.44-.18c.18,0,.33.06.45.19s.19.28.19.45c0,.16-.06.31-.19.44Z"/>
  <path class="cls-26" d="M34.64,32.03c.33-.33.49-.71.47-1.13s-.2-.81-.56-1.17c-.35-.35-.73-.53-1.15-.54s-.79.14-1.13.47c-.33.33-.49.71-.47,1.13.02.42.21.8.55,1.14.36.36.74.55,1.16.57.41.02.79-.13,1.13-.47ZM31.64,29.04c.36-.36.75-.6,1.19-.72s.87-.12,1.31,0,.83.37,1.19.72c.28.28.49.6.62.93.13.33.28.81.43,1.42l.88,3.6-.79.79-.74-3.09c-.04-.18-.08-.36-.1-.54-.11.22-.26.42-.46.61-.34.34-.72.56-1.14.66-.42.11-.85.1-1.28-.03-.42-.12-.79-.36-1.13-.69-.34-.34-.58-.73-.7-1.17-.12-.44-.12-.88,0-1.31.12-.44.36-.84.71-1.19Z"/>
  <polygon class="cls-26" points="39.74 25.62 41.33 27.22 42.15 26.4 42.75 27 41.93 27.82 43.19 29.08 42.5 29.77 41.24 28.51 38.72 31.03 38.24 30.55 36.42 24.45 37.17 23.69 38.93 29.62 40.64 27.91 39.05 26.31 39.74 25.62"/>
  <path class="cls-26" d="M42.39,24.18c.78.78,1.44,1.27,1.99,1.46.56.2,1.03.11,1.41-.27.37-.37.47-.84.28-1.4-.19-.55-.68-1.23-1.46-2.01-.78-.78-1.45-1.27-2.01-1.47-.57-.19-1.04-.11-1.42.26-.38.38-.47.86-.26,1.42.2.56.7,1.23,1.48,2.01ZM45.35,21.23c.96.96,1.53,1.86,1.7,2.67.18.82-.04,1.52-.63,2.11-.59.59-1.29.81-2.11.63-.82-.18-1.7-.75-2.66-1.71-.96-.96-1.54-1.85-1.72-2.67-.18-.82.02-1.53.61-2.12.59-.59,1.3-.8,2.12-.62s1.72.75,2.68,1.72Z"/>
  <text class="cls-27" transform="translate(13.35 149.92) rotate(-90)"><tspan x="0" y="0">测试准确率</tspan></text>
  <g class="cls-22">
    <g>
      <polygon class="cls-18" points="78.42 109.96 78.42 227.18 90.79 171.72 103.17 115.94 115.54 109.05 127.92 92.69 140.29 87.96 152.67 68.87 165.04 51.36 177.42 80.17 189.8 76.43 202.17 76.27 214.55 76.27 226.92 63.42 239.3 46.92 251.67 46.92 264.05 54.97 276.43 55.08 288.8 55.08 301.18 55.08 313.55 55.08 325.93 54.42 338.3 54.42 350.68 54.42 363.05 54.56 375.43 55.09 387.81 55.09 400.18 55.09 412.56 55.09 424.93 55.09 437.31 55.09 449.68 55.09 449.68 38.57 437.31 38.57 424.93 38.57 412.56 38.57 400.18 38.57 387.81 38.57 375.43 38.57 363.05 37.03 350.68 36.65 338.3 36.65 325.93 36.65 313.55 37.89 301.18 37.89 288.8 37.89 276.43 37.89 264.05 37.14 251.67 40.18 239.3 40.18 226.92 35.95 214.55 39.7 202.17 39.7 189.8 40.06 177.42 39.08 165.04 36.77 152.67 38.28 140.29 35.79 127.92 46.8 115.54 57.41 103.17 78.88 90.79 110.95 78.42 109.96"/>
      <polygon class="cls-6" points="78.42 109.96 78.42 227.18 90.79 171.72 103.17 115.94 115.54 109.05 127.92 92.69 140.29 87.96 152.67 68.87 165.04 51.36 177.42 80.17 189.8 76.43 202.17 76.27 214.55 76.27 226.92 63.42 239.3 46.92 251.67 46.92 264.05 54.97 276.43 55.08 288.8 55.08 301.18 55.08 313.55 55.08 325.93 54.42 338.3 54.42 350.68 54.42 363.05 54.56 375.43 55.09 387.81 55.09 400.18 55.09 412.56 55.09 424.93 55.09 437.31 55.09 449.68 55.09 449.68 38.57 437.31 38.57 424.93 38.57 412.56 38.57 400.18 38.57 387.81 38.57 375.43 38.57 363.05 37.03 350.68 36.65 338.3 36.65 325.93 36.65 313.55 37.89 301.18 37.89 288.8 37.89 276.43 37.89 264.05 37.14 251.67 40.18 239.3 40.18 226.92 35.95 214.55 39.7 202.17 39.7 189.8 40.06 177.42 39.08 165.04 36.77 152.67 38.28 140.29 35.79 127.92 46.8 115.54 57.41 103.17 78.88 90.79 110.95 78.42 109.96"/>
    </g>
  </g>
  <g class="cls-30">
    <g>
      <polygon class="cls-17" points="78.42 45.96 78.42 79.34 90.79 57.66 103.17 45.22 115.54 36.46 127.92 35.62 140.29 36.19 152.67 37.64 165.04 38.34 177.42 36.75 189.8 33.88 202.17 33.88 214.55 33.88 226.92 31.7 239.3 30.06 251.67 30.99 264.05 30.06 276.43 30.99 288.8 28.58 301.18 28.87 313.55 28.87 325.93 28.87 338.3 30.06 350.68 28.87 363.05 28.87 375.43 28.87 387.81 28.87 400.18 28.87 412.56 28.58 424.93 28.58 437.31 28.58 449.68 28.58 449.68 17.68 437.31 17.68 424.93 17.68 412.56 17.68 400.18 19.81 387.81 19.81 375.43 19.81 363.05 19.81 350.68 19.81 338.3 20.69 325.93 19.81 313.55 19.81 301.18 19.81 288.8 17.68 276.43 20.81 264.05 20.69 251.67 20.81 239.3 20.69 226.92 21.47 214.55 21.38 202.17 21.38 189.8 21.38 177.42 21.44 165.04 21.41 152.67 21.42 140.29 21.49 127.92 24.48 115.54 22.25 103.17 23.87 90.79 31.49 78.42 45.96"/>
      <polygon class="cls-8" points="78.42 45.96 78.42 79.34 90.79 57.66 103.17 45.22 115.54 36.46 127.92 35.62 140.29 36.19 152.67 37.64 165.04 38.34 177.42 36.75 189.8 33.88 202.17 33.88 214.55 33.88 226.92 31.7 239.3 30.06 251.67 30.99 264.05 30.06 276.43 30.99 288.8 28.58 301.18 28.87 313.55 28.87 325.93 28.87 338.3 30.06 350.68 28.87 363.05 28.87 375.43 28.87 387.81 28.87 400.18 28.87 412.56 28.58 424.93 28.58 437.31 28.58 449.68 28.58 449.68 17.68 437.31 17.68 424.93 17.68 412.56 17.68 400.18 19.81 387.81 19.81 375.43 19.81 363.05 19.81 350.68 19.81 338.3 20.69 325.93 19.81 313.55 19.81 301.18 19.81 288.8 17.68 276.43 20.81 264.05 20.69 251.67 20.81 239.3 20.69 226.92 21.47 214.55 21.38 202.17 21.38 189.8 21.38 177.42 21.44 165.04 21.41 152.67 21.42 140.29 21.49 127.92 24.48 115.54 22.25 103.17 23.87 90.79 31.49 78.42 45.96"/>
    </g>
  </g>
  <g class="cls-38">
    <polyline class="cls-3" points="78.42 168.57 90.79 141.33 103.17 97.41 115.54 83.23 127.92 69.74 140.29 61.88 152.67 53.58 165.04 44.06 177.42 59.63 189.8 58.24 202.17 57.99 214.55 57.99 226.92 49.68 239.3 43.55 251.67 43.55 264.05 46.05 276.43 46.49 288.8 46.49 301.18 46.49 313.55 46.49 325.93 45.53 338.3 45.53 350.68 45.53 363.05 45.79 375.43 46.83 387.81 46.83 400.18 46.83 412.56 46.83 424.93 46.83 437.31 46.83 449.68 46.83"/>
  </g>
  <g class="cls-45">
    <polyline class="cls-5" points="78.42 62.65 90.79 44.58 103.17 34.54 115.54 29.36 127.92 30.05 140.29 28.84 152.67 29.53 165.04 29.87 177.42 29.1 189.8 27.63 202.17 27.63 214.55 27.63 226.92 26.59 239.3 25.38 251.67 25.9 264.05 25.38 276.43 25.9 288.8 23.13 301.18 24.34 313.55 24.34 325.93 24.34 338.3 25.38 350.68 24.34 363.05 24.34 375.43 24.34 387.81 24.34 400.18 24.34 412.56 23.13 424.93 23.13 437.31 23.13 449.68 23.13"/>
  </g>
  <line class="cls-1" x1="59.85" y1="237.66" x2="59.85" y2="7.2"/>
  <line class="cls-1" x1="468.25" y1="237.66" x2="468.25" y2="7.2"/>
  <line class="cls-1" x1="59.85" y1="237.66" x2="468.25" y2="237.66"/>
  <line class="cls-1" x1="59.85" y1="7.2" x2="468.25" y2="7.2"/>
  <rect class="cls-23" x="376.71" y="196.02" width="86.04" height="36.14"/>
  <rect class="cls-7" x="376.71" y="196.02" width="86.04" height="36.14"/>
  <polyline class="cls-3" points="381.11 204.94 392.11 204.94 403.11 204.94"/>
  <polygon class="cls-26" points="413.69 200.74 418.17 207.04 418.17 200.74 419.09 200.74 419.09 208.79 418.27 208.79 413.79 202.48 413.79 208.79 412.87 208.79 412.87 200.74 413.69 200.74"/>
  <path class="cls-26" d="M424.36,206.26c-.46-.11-.89-.18-1.27-.18-.48,0-.85.1-1.11.27-.26.19-.39.44-.39.77,0,.31.11.55.33.73s.51.25.86.25c.43,0,.8-.12,1.11-.37.31-.25.46-.61.46-1.06v-.42ZM423.1,202.95c.64,0,1.17.2,1.58.59.41.4.62.95.62,1.67v3.58h-.83c-.02-.37-.04-.62-.04-.73-.18.29-.42.5-.71.63s-.64.21-1.01.21-.71-.07-1.03-.2c-.32-.13-.57-.33-.76-.59-.2-.26-.29-.59-.29-.97,0-.56.22-1,.68-1.33.46-.33,1.06-.5,1.78-.5.41,0,.84.06,1.28.17v-.1c0-.53-.11-.92-.33-1.19-.22-.26-.54-.4-.98-.4-.35,0-.65.08-.88.22-.24.15-.44.36-.59.65l-.71-.41c.18-.4.46-.7.86-.95s.86-.36,1.38-.36Z"/>
  <path class="cls-26" d="M426.9,208.79v-5.71h.94v5.71h-.94ZM428.5,202.06c-.18,0-.32-.05-.44-.19-.12-.12-.18-.27-.18-.45s.06-.32.18-.45c.12-.12.26-.19.44-.19s.32.07.44.19c.12.13.19.28.19.45s-.07.33-.19.45c-.12.13-.26.19-.44.19ZM426.24,202.06c-.17,0-.3-.05-.42-.19-.12-.12-.19-.27-.19-.45s.07-.32.19-.45c.12-.12.25-.19.43-.19.17,0,.31.07.43.19.12.13.19.28.19.45s-.07.33-.19.45c-.12.13-.26.19-.44.19Z"/>
  <polygon class="cls-26" points="429.86 203.08 431.62 207.55 433.27 203.08 434.24 203.08 431.94 208.79 431.18 208.79 428.79 203.08 429.86 203.08"/>
  <path class="cls-26" d="M437.54,203.81c-.42,0-.77.13-1.08.4s-.49.65-.57,1.15h3.11c-.02-.48-.17-.87-.43-1.14-.26-.26-.62-.41-1.03-.41ZM437.57,202.95c.48,0,.91.12,1.29.35.37.23.66.54.86.94.2.4.3.84.3,1.32,0,.21-.02.4-.04.56h-4.11c.03.66.22,1.14.56,1.46.33.32.76.47,1.28.47.64,0,1.1-.25,1.39-.77l.71.41c-.15.4-.43.69-.83.9-.4.2-.85.31-1.33.31-.52,0-.99-.11-1.41-.34-.42-.23-.76-.57-1-1.02s-.36-.99-.36-1.63c0-.61.12-1.13.36-1.58.24-.44.57-.78.99-1.02.41-.23.86-.35,1.35-.35Z"/>
  <path class="cls-26" d="M447.84,205.46v-.88h2.68v3.14c-.24.35-.61.64-1.09.86-.49.22-1.04.33-1.66.33-.75,0-1.41-.16-2-.52-.59-.34-1.06-.82-1.39-1.46-.33-.64-.5-1.36-.5-2.18s.17-1.52.5-2.14c.33-.63.79-1.11,1.38-1.46.58-.35,1.23-.53,1.95-.53.63,0,1.19.14,1.68.41.5.27.86.65,1.09,1.13l-.79.46c-.18-.33-.44-.59-.79-.79-.35-.2-.77-.31-1.23-.31-.54,0-1.01.14-1.43.41-.42.27-.74.66-.97,1.14-.23.48-.34,1.04-.34,1.68s.12,1.22.36,1.72.58.88,1.02,1.14c.44.27.95.41,1.53.41.75,0,1.31-.2,1.71-.62v-1.94h-1.71Z"/>
  <path class="cls-26" d="M455.94,205.6l-1.36-3.55-1.3,3.55h2.66ZM455.03,200.74l3.23,8.05h-1.09l-.89-2.31h-3.33l-.85,2.31h-.99l3.09-8.05h.83Z"/>
  <polyline class="cls-5" points="381.11 221.36 392.11 221.36 403.11 221.36"/>
  <path class="cls-26" d="M415.57,224.35c.68,0,1.2-.12,1.54-.37.34-.24.52-.59.52-1.05s-.18-.8-.52-1.07c-.34-.25-.86-.39-1.54-.39h-1.73v2.87h1.73ZM413.85,218.03v2.64h1.4c.6,0,1.08-.11,1.41-.35.33-.23.51-.56.51-.98,0-.4-.18-.71-.51-.96-.34-.23-.81-.35-1.41-.35h-1.4ZM417.16,220.99c1,.29,1.51.93,1.51,1.95,0,.73-.25,1.29-.74,1.68-.49.4-1.22.59-2.18.59h-2.88v-8.05h2.54c.56,0,1.06.09,1.47.26.42.18.74.43.97.76.22.33.34.71.34,1.15,0,.77-.35,1.32-1.03,1.65Z"/>
  <path class="cls-26" d="M421.01,218.02v3.04h1.38c.62,0,1.09-.13,1.42-.41.33-.27.49-.64.49-1.1s-.17-.81-.49-1.1c-.33-.29-.8-.43-1.42-.43h-1.38ZM426.13,225.21h-1.2l-2.33-3.3h-1.6v3.3h-.98v-8.05h2.48c.55,0,1.03.1,1.46.3.43.2.76.48,1,.85.24.36.36.78.36,1.24,0,.53-.15.99-.45,1.38-.31.39-.72.66-1.24.83l2.5,3.46Z"/>
  <rect class="cls-26" x="427.09" y="217.16" width=".98" height="8.05"/>
  <path class="cls-26" d="M432.05,224.34c1.01,0,1.8-.28,2.38-.83s.86-1.33.86-2.34-.3-1.77-.87-2.32c-.57-.55-1.36-.84-2.37-.84h-1.09v6.33h1.09ZM432.18,217.16c.78,0,1.48.17,2.11.47.63.32,1.12.78,1.48,1.39.35.6.54,1.32.54,2.16s-.19,1.57-.54,2.18c-.35.61-.85,1.07-1.47,1.39-.63.32-1.33.47-2.12.47h-2.2v-8.05h2.2Z"/>
  <path class="cls-26" d="M441.38,221.88v-.88h2.68v3.14c-.24.35-.61.64-1.09.86-.49.22-1.04.33-1.66.33-.75,0-1.41-.16-2-.52-.59-.34-1.06-.82-1.39-1.46-.33-.64-.5-1.36-.5-2.18s.17-1.52.5-2.14c.33-.63.79-1.11,1.38-1.46.58-.35,1.23-.53,1.95-.53.63,0,1.19.14,1.68.41.5.27.86.65,1.09,1.13l-.79.46c-.18-.33-.44-.59-.79-.79-.35-.2-.77-.31-1.23-.31-.54,0-1.01.14-1.43.41-.42.27-.74.66-.97,1.14-.23.48-.34,1.04-.34,1.68s.12,1.22.36,1.72.58.88,1.02,1.14c.44.27.95.41,1.53.41.75,0,1.31-.2,1.71-.62v-1.94h-1.71Z"/>
  <polygon class="cls-26" points="450.06 221.48 446.52 221.48 446.52 224.34 450.6 224.34 450.6 225.21 445.54 225.21 445.54 217.15 450.48 217.15 450.48 218.02 446.52 218.02 446.52 220.61 450.06 220.61 450.06 221.48"/>
  <rect class="cls-23" x="59.85" y="273.72" width="408.39" height="230.46"/>
  <g class="cls-39">
    <line class="cls-2" x1="78.42" y1="504.18" x2="78.42" y2="273.72"/>
  </g>
  <path class="cls-26" d="M76.86,518.03c0,1.1.12,1.91.37,2.44.25.54.65.8,1.19.8s.92-.26,1.19-.79c.25-.53.39-1.35.39-2.45s-.13-1.92-.39-2.46c-.26-.54-.66-.81-1.19-.81s-.94.28-1.19.81c-.25.54-.37,1.36-.37,2.46ZM81.04,518.03c0,1.36-.23,2.4-.68,3.09-.45.7-1.1,1.05-1.94,1.05s-1.49-.34-1.94-1.05c-.45-.7-.67-1.73-.67-3.09s.22-2.4.67-3.1c.45-.7,1.1-1.07,1.94-1.07s1.49.35,1.94,1.06c.45.7.68,1.75.68,3.11Z"/>
  <g class="cls-14">
    <line class="cls-2" x1="140.29" y1="504.18" x2="140.29" y2="273.72"/>
  </g>
  <path class="cls-26" d="M140.35,516.92c.47,0,.9.12,1.28.34.37.22.66.53.87.92.2.4.31.84.31,1.33,0,.53-.12.99-.34,1.39-.23.41-.54.72-.93.94-.4.22-.84.33-1.32.33-.54,0-1.01-.13-1.43-.4s-.7-.65-.86-1.17l.79-.45c.13.37.32.66.57.85.25.2.56.29.92.29.48,0,.86-.15,1.14-.48.28-.32.42-.74.42-1.24s-.14-.9-.41-1.24c-.26-.33-.65-.51-1.15-.51-.64,0-1.14.3-1.5.87l-.63-.32.55-4.38h3.81v.86h-2.95l-.32,2.39c.32-.2.71-.31,1.18-.31Z"/>
  <g class="cls-42">
    <line class="cls-2" x1="202.17" y1="504.18" x2="202.17" y2="273.72"/>
  </g>
  <polygon class="cls-26" points="197 516.37 197 515.36 199.34 513.99 200.09 513.99 200.09 522.06 199.1 522.06 199.1 515.17 197 516.37"/>
  <path class="cls-26" d="M203.75,518.03c0,1.1.12,1.91.37,2.44.25.54.65.8,1.19.8s.92-.26,1.19-.79c.25-.53.39-1.35.39-2.45s-.13-1.92-.39-2.46c-.26-.54-.66-.81-1.19-.81s-.93.28-1.19.81c-.25.54-.37,1.36-.37,2.46ZM207.93,518.03c0,1.36-.23,2.4-.68,3.09-.45.7-1.1,1.05-1.94,1.05s-1.49-.34-1.94-1.05c-.45-.7-.67-1.73-.67-3.09s.22-2.4.67-3.1c.45-.7,1.1-1.07,1.94-1.07s1.49.35,1.94,1.06c.45.7.68,1.75.68,3.11Z"/>
  <g class="cls-12">
    <line class="cls-2" x1="264.05" y1="504.18" x2="264.05" y2="273.72"/>
  </g>
  <g class="cls-15">
    <line class="cls-2" x1="325.93" y1="504.18" x2="325.93" y2="273.72"/>
  </g>
  <path class="cls-26" d="M321.71,521.19h3.64v.87h-5.14v-.63l2.61-2.9c.48-.54.82-.97,1.01-1.28.18-.31.27-.65.27-1.02,0-.46-.13-.82-.39-1.09-.26-.25-.58-.39-.97-.39s-.75.14-1.05.41c-.31.26-.52.62-.65,1.06l-.79-.45c.15-.59.47-1.07.96-1.4.47-.33,1-.51,1.6-.51.42,0,.81.1,1.17.27.35.18.63.44.84.79.21.35.32.77.32,1.25s-.12.93-.35,1.35c-.24.43-.65.97-1.23,1.61l-1.85,2.05Z"/>
  <path class="cls-26" d="M327.51,518.03c0,1.1.12,1.91.37,2.44.25.54.65.8,1.19.8s.92-.26,1.19-.79c.25-.53.39-1.35.39-2.45s-.13-1.92-.39-2.46c-.26-.54-.66-.81-1.19-.81s-.93.28-1.19.81c-.25.54-.37,1.36-.37,2.46ZM331.69,518.03c0,1.36-.23,2.4-.68,3.09-.45.7-1.1,1.05-1.94,1.05s-1.49-.34-1.94-1.05c-.45-.7-.67-1.73-.67-3.09s.22-2.4.67-3.1c.45-.7,1.1-1.07,1.94-1.07s1.48.35,1.94,1.06c.45.7.68,1.75.68,3.11Z"/>
  <g class="cls-41">
    <line class="cls-2" x1="387.81" y1="504.18" x2="387.81" y2="273.72"/>
  </g>
  <path class="cls-26" d="M383.59,521.19h3.64v.87h-5.14v-.63l2.61-2.9c.48-.54.82-.97,1.01-1.28.18-.31.27-.65.27-1.02,0-.46-.13-.82-.39-1.09-.26-.25-.58-.39-.97-.39s-.75.14-1.05.41c-.31.26-.52.62-.65,1.06l-.79-.45c.15-.59.47-1.07.96-1.4.47-.33,1-.51,1.6-.51.42,0,.81.1,1.17.27.35.18.63.44.84.79.21.35.32.77.32,1.25s-.12.93-.35,1.35c-.24.43-.65.97-1.23,1.61l-1.85,2.05Z"/>
  <path class="cls-26" d="M391,516.92c.47,0,.9.12,1.28.34.37.22.66.53.87.92.2.4.31.84.31,1.33,0,.53-.12.99-.34,1.39-.23.41-.54.72-.93.94-.4.22-.84.33-1.32.33-.54,0-1.01-.13-1.43-.4s-.7-.65-.86-1.17l.79-.45c.13.37.32.66.57.85.25.2.56.29.92.29.48,0,.86-.15,1.14-.48.27-.32.42-.74.42-1.24s-.14-.9-.41-1.24c-.26-.33-.65-.51-1.15-.51-.64,0-1.14.3-1.5.87l-.63-.32.55-4.38h3.81v.86h-2.95l-.32,2.39c.32-.2.71-.31,1.18-.31Z"/>
  <g class="cls-34">
    <line class="cls-2" x1="449.68" y1="504.18" x2="449.68" y2="273.72"/>
  </g>
  <path class="cls-26" d="M447.66,517.75c.48.15.84.41,1.08.75.24.35.36.77.36,1.28s-.12.93-.35,1.3c-.24.36-.55.64-.93.81-.4.18-.81.28-1.28.28-.59,0-1.13-.14-1.63-.44-.49-.3-.83-.74-.99-1.32l.79-.45c.13.44.37.78.71,1,.34.22.71.33,1.11.33.43,0,.79-.13,1.08-.4s.44-.64.44-1.12c0-.98-.67-1.47-2.01-1.47h-.34v-.88h.4c.54,0,.95-.13,1.23-.4.29-.26.43-.59.43-1.01,0-.39-.12-.69-.36-.91-.24-.22-.56-.33-.93-.33-.4,0-.74.12-1.01.35-.27.24-.48.57-.63,1.01l-.79-.45c.18-.59.48-1.03.92-1.34s.97-.46,1.56-.46c.68,0,1.24.2,1.66.58.42.4.63.9.63,1.53,0,.41-.1.76-.29,1.07-.19.31-.47.55-.86.7Z"/>
  <path class="cls-26" d="M451.26,518.03c0,1.1.12,1.91.37,2.44.25.54.65.8,1.19.8s.92-.26,1.19-.79c.25-.53.39-1.35.39-2.45s-.13-1.92-.39-2.46c-.26-.54-.66-.81-1.19-.81s-.93.28-1.19.81c-.25.54-.37,1.36-.37,2.46ZM455.44,518.03c0,1.36-.23,2.4-.68,3.09-.45.7-1.1,1.05-1.94,1.05s-1.49-.34-1.94-1.05c-.45-.7-.67-1.73-.67-3.09s.22-2.4.67-3.1c.45-.7,1.1-1.07,1.94-1.07s1.48.35,1.94,1.06c.45.7.68,1.75.68,3.11Z"/>
  <polygon class="cls-26" points="258.86 516.55 258.86 515.54 261.2 514.17 261.95 514.17 261.95 522.23 260.96 522.23 260.96 515.35 258.86 516.55"/>
  <path class="cls-26" d="M267.23,517.1c.47,0,.9.12,1.28.34.37.22.66.53.87.92.2.4.31.84.31,1.33,0,.53-.12.99-.34,1.39-.23.41-.54.72-.93.94-.4.22-.84.33-1.32.33-.54,0-1.01-.13-1.43-.4s-.7-.65-.86-1.17l.79-.45c.13.37.32.66.57.85.25.2.56.29.92.29.48,0,.86-.15,1.14-.48.27-.32.42-.74.42-1.24s-.14-.9-.41-1.24c-.26-.33-.65-.51-1.15-.51-.64,0-1.14.3-1.5.87l-.63-.32.55-4.38h3.81v.86h-2.95l-.32,2.39c.32-.2.71-.31,1.18-.31Z"/>
  <text class="cls-29" transform="translate(270.31 522.23)"><tspan x="0" y="0"> </tspan></text>
  <g class="cls-9">
    <line class="cls-2" x1="59.85" y1="503.44" x2="468.25" y2="503.44"/>
  </g>
  <path class="cls-26" d="M34.29,518.2l2.57-2.57.61.61-3.63,3.63-.44-.44-.21-3.9c-.04-.72-.1-1.27-.19-1.62-.09-.34-.26-.65-.53-.92-.33-.33-.68-.49-1.04-.5-.37,0-.68.14-.96.41-.28.28-.43.63-.45,1.03-.03.4.07.8.29,1.21l-.88.24c-.31-.53-.42-1.09-.31-1.66.1-.57.35-1.07.77-1.49.3-.3.65-.51,1.02-.63.37-.12.75-.13,1.15-.03s.77.32,1.11.66c.34.34.58.75.71,1.21.13.47.23,1.14.26,2.01l.14,2.75Z"/>
  <path class="cls-26" d="M38.86,515.01c-.12.12-.27.18-.44.18s-.31-.06-.44-.19c-.12-.12-.19-.26-.19-.44,0-.17.05-.32.18-.44s.27-.18.44-.18c.18,0,.33.06.45.19.12.12.19.28.19.45,0,.16-.06.31-.19.44Z"/>
  <path class="cls-26" d="M40.52,511.97l2.57-2.57.61.61-3.63,3.63-.44-.44-.21-3.9c-.04-.72-.1-1.27-.19-1.62-.09-.34-.26-.65-.53-.92-.33-.33-.68-.49-1.04-.5-.37,0-.68.14-.96.41-.28.28-.43.63-.45,1.03-.03.4.07.8.29,1.21l-.88.24c-.31-.53-.42-1.09-.31-1.66.1-.57.35-1.07.77-1.49.3-.3.65-.51,1.02-.63s.75-.13,1.15-.03.77.32,1.11.66.58.75.71,1.21c.13.47.23,1.14.26,2.01l.14,2.75Z"/>
  <path class="cls-26" d="M42.75,503.71c.33-.33.72-.55,1.14-.66.42-.11.84-.09,1.27.04.42.14.81.37,1.16.72.37.37.61.79.74,1.22.12.45.12.89,0,1.32-.12.44-.36.82-.7,1.17-.38.38-.81.62-1.29.73s-.96.04-1.43-.22l.24-.88c.36.17.69.24,1,.19.32-.04.6-.19.86-.45.34-.34.5-.72.47-1.15-.03-.42-.23-.82-.58-1.17s-.74-.54-1.17-.59c-.42-.05-.82.1-1.17.46-.45.45-.6,1.02-.44,1.67l-.67.22-2.71-3.48,2.69-2.69.61.61-2.08,2.08,1.46,1.91c.09-.37.29-.72.61-1.05Z"/>
  <g class="cls-19">
    <line class="cls-2" x1="59.85" y1="470.27" x2="468.25" y2="470.27"/>
  </g>
  <path class="cls-26" d="M34.29,485.03l2.57-2.57.61.61-3.63,3.63-.44-.44-.21-3.9c-.04-.72-.1-1.27-.19-1.62-.09-.34-.26-.65-.53-.92-.33-.33-.68-.49-1.04-.5-.37,0-.68.14-.96.41-.28.28-.43.63-.45,1.03-.03.4.07.8.29,1.21l-.88.24c-.31-.53-.42-1.09-.31-1.66.1-.57.35-1.07.77-1.49.3-.3.65-.51,1.02-.63.37-.12.75-.13,1.15-.03.4.1.77.32,1.11.66.34.34.58.75.71,1.21.13.47.23,1.14.26,2.01l.14,2.75Z"/>
  <path class="cls-26" d="M38.86,481.84c-.12.12-.27.18-.44.18s-.31-.06-.44-.19c-.12-.12-.19-.26-.19-.44,0-.17.05-.32.18-.44s.27-.18.44-.18c.18,0,.33.06.45.19.12.12.19.28.19.45,0,.16-.06.31-.19.44Z"/>
  <path class="cls-26" d="M39.65,474.82c.45-.23.88-.3,1.29-.23.42.08.8.29,1.16.65.36.36.58.75.67,1.17.09.43.06.84-.09,1.24-.16.4-.38.77-.71,1.1-.42.42-.9.7-1.46.84-.56.14-1.1.06-1.63-.23l.24-.88c.4.22.82.29,1.21.2.4-.09.74-.27,1.02-.55.3-.3.47-.65.48-1.04.02-.39-.14-.76-.48-1.1-.69-.69-1.52-.57-2.47.38l-.24.24-.61-.63.27-.27c.38-.38.58-.76.59-1.15.02-.39-.12-.72-.41-1.02-.27-.27-.58-.4-.9-.39s-.63.16-.89.43c-.28.28-.44.61-.47.96-.02.37.06.75.27,1.16l-.88.24c-.3-.54-.39-1.07-.3-1.6.09-.53.36-1.01.78-1.43.48-.48,1.02-.74,1.59-.76.58-.02,1.08.19,1.52.64.29.29.47.61.55.96s.05.72-.11,1.1Z"/>
  <path class="cls-26" d="M42.39,472.47c.78.78,1.44,1.27,1.99,1.46.56.2,1.03.11,1.41-.27.37-.37.47-.84.28-1.4-.19-.55-.68-1.23-1.46-2.01s-1.45-1.27-2.01-1.47c-.57-.19-1.04-.11-1.42.26-.38.38-.47.86-.26,1.42.2.56.7,1.23,1.48,2.01ZM45.34,469.52c.96.96,1.53,1.86,1.7,2.67.18.82-.04,1.52-.63,2.11-.59.59-1.29.81-2.11.63-.82-.18-1.7-.75-2.66-1.71-.96-.96-1.54-1.85-1.72-2.67-.18-.82.02-1.53.61-2.12s1.3-.8,2.12-.62,1.72.75,2.68,1.72Z"/>
  <g class="cls-20">
    <line class="cls-2" x1="59.85" y1="437.1" x2="468.25" y2="437.1"/>
  </g>
  <path class="cls-26" d="M34.29,451.87l2.57-2.57.61.61-3.63,3.63-.44-.44-.21-3.9c-.04-.72-.1-1.27-.19-1.62-.09-.34-.26-.65-.53-.92-.33-.33-.68-.49-1.04-.5-.37,0-.68.14-.96.41-.28.28-.43.63-.45,1.03-.03.4.07.8.29,1.21l-.88.24c-.31-.53-.42-1.09-.31-1.66.1-.57.35-1.07.77-1.49.3-.3.65-.51,1.02-.63.37-.12.75-.13,1.15-.03.4.1.77.32,1.11.66.34.34.58.75.71,1.21.13.47.23,1.14.26,2.01l.14,2.75Z"/>
  <path class="cls-26" d="M38.86,448.68c-.12.12-.27.18-.44.18s-.31-.06-.44-.19c-.12-.12-.19-.26-.19-.44,0-.17.05-.32.18-.44s.27-.18.44-.18c.18,0,.33.06.45.19.12.12.19.28.19.45,0,.16-.06.31-.19.44Z"/>
  <path class="cls-26" d="M39.65,441.65c.45-.23.88-.3,1.29-.23.42.08.8.29,1.16.65.36.36.58.75.67,1.17.09.43.06.84-.09,1.24-.16.4-.38.77-.71,1.1-.42.42-.9.7-1.46.84-.56.14-1.1.06-1.63-.23l.24-.88c.4.22.82.29,1.21.2.4-.09.74-.27,1.02-.55.3-.3.47-.65.48-1.04.02-.39-.14-.76-.48-1.1-.69-.69-1.52-.57-2.47.38l-.24.24-.61-.63.27-.27c.38-.38.58-.76.59-1.15.02-.39-.12-.72-.41-1.02-.27-.27-.58-.4-.9-.39s-.63.16-.89.43c-.28.28-.44.61-.47.96-.02.37.06.75.27,1.16l-.88.24c-.3-.54-.39-1.07-.3-1.6.09-.53.36-1.01.78-1.43.48-.48,1.02-.74,1.59-.76.58-.02,1.08.19,1.52.64.29.29.47.61.55.96s.05.72-.11,1.1Z"/>
  <path class="cls-26" d="M42.75,437.37c.33-.33.72-.55,1.14-.66.42-.11.84-.09,1.27.04.42.14.81.37,1.16.72.37.37.61.79.74,1.22.12.45.12.89,0,1.32-.12.44-.36.82-.7,1.17-.38.38-.81.62-1.29.73s-.96.04-1.43-.22l.24-.88c.36.17.69.24,1,.19.32-.04.6-.19.86-.45.34-.34.5-.72.47-1.15-.03-.42-.23-.82-.58-1.17-.34-.34-.74-.54-1.17-.59-.42-.05-.82.1-1.17.46-.45.45-.6,1.02-.44,1.67l-.67.22-2.71-3.48,2.69-2.69.61.61-2.08,2.08,1.46,1.91c.09-.37.29-.72.61-1.05Z"/>
  <g class="cls-46">
    <line class="cls-2" x1="59.85" y1="403.93" x2="468.25" y2="403.93"/>
  </g>
  <path class="cls-26" d="M34.29,418.7l2.57-2.57.61.61-3.63,3.63-.44-.44-.21-3.9c-.04-.72-.1-1.27-.19-1.62-.09-.34-.26-.65-.53-.92-.33-.33-.68-.49-1.04-.5-.37,0-.68.14-.96.41-.28.28-.43.63-.45,1.03-.03.4.07.8.29,1.21l-.88.24c-.31-.53-.42-1.09-.31-1.66.1-.57.35-1.07.77-1.49.3-.3.65-.51,1.02-.63.37-.12.75-.13,1.15-.03.4.1.77.32,1.11.66.34.34.58.75.71,1.21.13.47.23,1.14.26,2.01l.14,2.75Z"/>
  <path class="cls-26" d="M38.86,415.51c-.12.12-.27.18-.44.18s-.31-.06-.44-.19c-.12-.12-.19-.26-.19-.44,0-.17.05-.32.18-.44s.27-.18.44-.18c.18,0,.33.06.45.19.12.12.19.28.19.45,0,.16-.06.31-.19.44Z"/>
  <polygon class="cls-26" points="39.74 407.57 41.33 409.17 42.15 408.35 42.75 408.95 41.93 409.77 43.19 411.03 42.5 411.72 41.24 410.46 38.72 412.98 38.23 412.5 36.41 406.4 37.17 405.65 38.93 411.57 40.64 409.86 39.04 408.27 39.74 407.57"/>
  <path class="cls-26" d="M42.39,406.14c.78.78,1.44,1.27,1.99,1.46.56.2,1.03.11,1.41-.27.37-.37.47-.84.28-1.4-.19-.55-.68-1.23-1.46-2.01-.78-.78-1.45-1.27-2.01-1.47-.57-.19-1.04-.11-1.42.26-.38.38-.47.86-.26,1.42.2.56.7,1.23,1.48,2.01ZM45.34,403.18c.96.96,1.53,1.86,1.7,2.67.18.82-.04,1.52-.63,2.11-.59.59-1.29.81-2.11.63-.82-.18-1.7-.75-2.66-1.71-.96-.96-1.54-1.85-1.72-2.67-.18-.82.02-1.53.61-2.12s1.3-.8,2.12-.62c.82.18,1.72.75,2.68,1.72Z"/>
  <g class="cls-24">
    <line class="cls-2" x1="59.85" y1="370.76" x2="468.25" y2="370.76"/>
  </g>
  <path class="cls-26" d="M34.29,385.53l2.57-2.57.61.61-3.63,3.63-.44-.44-.21-3.9c-.04-.72-.1-1.27-.19-1.62-.09-.34-.26-.65-.53-.92-.33-.33-.68-.49-1.04-.5-.37,0-.68.14-.96.41-.28.28-.43.63-.45,1.03-.03.4.07.8.29,1.21l-.88.24c-.31-.53-.42-1.09-.31-1.66.1-.57.35-1.07.77-1.49.3-.3.65-.51,1.02-.63.37-.12.75-.13,1.15-.03s.77.32,1.11.66c.34.34.58.75.71,1.21.13.47.23,1.14.26,2.01l.14,2.75Z"/>
  <path class="cls-26" d="M38.86,382.34c-.12.12-.27.18-.44.18s-.31-.06-.44-.19c-.12-.12-.19-.26-.19-.44,0-.17.05-.32.18-.44s.27-.18.44-.18c.18,0,.33.06.45.19.12.12.19.28.19.45,0,.16-.06.31-.19.44Z"/>
  <polygon class="cls-26" points="39.74 374.41 41.33 376 42.15 375.19 42.75 375.78 41.93 376.6 43.19 377.86 42.5 378.55 41.24 377.29 38.72 379.81 38.23 379.33 36.41 373.23 37.17 372.48 38.93 378.41 40.64 376.69 39.04 375.1 39.74 374.41"/>
  <path class="cls-26" d="M42.75,371.04c.33-.33.72-.55,1.14-.66.42-.11.84-.09,1.27.04.42.14.81.37,1.16.72.37.37.61.79.74,1.22.12.45.12.89,0,1.32-.12.44-.36.82-.7,1.17-.38.38-.81.62-1.29.73s-.96.04-1.43-.22l.24-.88c.36.17.69.24,1,.19.32-.04.6-.19.86-.45.34-.34.5-.72.47-1.15-.03-.42-.23-.82-.58-1.17-.34-.34-.74-.54-1.17-.59-.42-.05-.82.1-1.17.46-.45.45-.6,1.02-.44,1.67l-.67.22-2.71-3.48,2.69-2.69.61.61-2.08,2.08,1.46,1.91c.09-.37.29-.72.61-1.05Z"/>
  <g class="cls-37">
    <line class="cls-2" x1="59.85" y1="337.6" x2="468.25" y2="337.6"/>
  </g>
  <path class="cls-26" d="M34.29,352.36l2.57-2.57.61.61-3.63,3.63-.44-.44-.21-3.9c-.04-.72-.1-1.27-.19-1.62-.09-.34-.26-.65-.53-.92-.33-.33-.68-.49-1.04-.5-.37,0-.68.14-.96.41-.28.28-.43.63-.45,1.03-.03.4.07.8.29,1.21l-.88.24c-.31-.53-.42-1.09-.31-1.66.1-.57.35-1.07.77-1.49.3-.3.65-.51,1.02-.63.37-.12.75-.13,1.15-.03.4.1.77.32,1.11.66.34.34.58.75.71,1.21.13.47.23,1.14.26,2.01l.14,2.75Z"/>
  <path class="cls-26" d="M38.86,349.17c-.12.12-.27.18-.44.18s-.31-.06-.44-.19c-.12-.12-.19-.26-.19-.44,0-.17.05-.32.18-.44s.27-.18.44-.18c.18,0,.33.06.45.19.12.12.19.28.19.45,0,.16-.06.31-.19.44Z"/>
  <path class="cls-26" d="M38.31,342.31c.33-.33.72-.55,1.14-.66.42-.11.84-.09,1.27.04.42.14.81.37,1.16.72.37.37.61.79.74,1.22.12.45.12.89,0,1.32-.12.44-.36.82-.7,1.17-.38.38-.81.62-1.29.73s-.96.04-1.43-.22l.24-.88c.36.17.69.24,1,.19.32-.04.6-.19.86-.45.34-.34.5-.72.47-1.15-.03-.42-.23-.82-.58-1.17-.34-.34-.74-.54-1.17-.59-.42-.05-.82.1-1.17.46-.45.45-.6,1.02-.44,1.67l-.67.22-2.71-3.48,2.69-2.69.61.61-2.08,2.08,1.46,1.91c.09-.37.29-.72.61-1.05Z"/>
  <path class="cls-26" d="M42.39,339.8c.78.78,1.44,1.27,1.99,1.46.56.2,1.03.11,1.41-.27.37-.37.47-.84.28-1.4-.19-.55-.68-1.23-1.46-2.01-.78-.78-1.45-1.27-2.01-1.47-.57-.19-1.04-.11-1.42.26-.38.38-.47.86-.26,1.42.2.56.7,1.23,1.48,2.01ZM45.34,336.84c.96.96,1.53,1.86,1.7,2.67.18.82-.04,1.52-.63,2.11-.59.59-1.29.81-2.11.63-.82-.18-1.7-.75-2.66-1.71-.96-.96-1.54-1.85-1.72-2.67-.18-.82.02-1.53.61-2.12s1.3-.8,2.12-.62c.82.18,1.72.75,2.68,1.72Z"/>
  <g class="cls-25">
    <line class="cls-2" x1="59.85" y1="304.43" x2="468.25" y2="304.43"/>
  </g>
  <path class="cls-26" d="M34.29,319.19l2.57-2.57.61.61-3.63,3.63-.44-.44-.21-3.9c-.04-.72-.1-1.27-.19-1.62-.09-.34-.26-.65-.53-.92-.33-.33-.68-.49-1.04-.5-.37,0-.68.14-.96.41-.28.28-.43.63-.45,1.03-.03.4.07.8.29,1.21l-.88.24c-.31-.53-.42-1.09-.31-1.66.1-.57.35-1.07.77-1.49.3-.3.65-.51,1.02-.63.37-.12.75-.13,1.15-.03.4.1.77.32,1.11.66.34.34.58.75.71,1.21.13.47.23,1.14.26,2.01l.14,2.75Z"/>
  <path class="cls-26" d="M38.86,316.01c-.12.12-.27.18-.44.18s-.31-.06-.44-.19c-.12-.12-.19-.26-.19-.44,0-.17.05-.32.18-.44s.27-.18.44-.18c.18,0,.33.06.45.19.12.12.19.28.19.45,0,.16-.06.31-.19.44Z"/>
  <path class="cls-26" d="M38.31,309.14c.33-.33.72-.55,1.14-.66.42-.11.84-.09,1.27.04.42.14.81.37,1.16.72.37.37.61.79.74,1.22.12.45.12.89,0,1.32-.12.44-.36.82-.7,1.17-.38.38-.81.62-1.29.73s-.96.04-1.43-.22l.24-.88c.36.17.69.24,1,.19.32-.04.6-.19.86-.45.34-.34.5-.72.47-1.15-.03-.42-.23-.82-.58-1.17-.34-.34-.74-.54-1.17-.59-.42-.05-.82.1-1.17.46-.45.45-.6,1.02-.44,1.67l-.67.22-2.71-3.48,2.69-2.69.61.61-2.08,2.08,1.46,1.91c.09-.37.29-.72.61-1.05Z"/>
  <path class="cls-26" d="M42.75,304.7c.33-.33.72-.55,1.14-.66.42-.11.84-.09,1.27.04.42.14.81.37,1.16.72.37.37.61.79.74,1.22.12.45.12.89,0,1.32-.12.44-.36.82-.7,1.17-.38.38-.81.62-1.29.73s-.96.04-1.43-.22l.24-.88c.36.17.69.24,1,.19.32-.04.6-.19.86-.45.34-.34.5-.72.47-1.15-.03-.42-.23-.82-.58-1.17-.34-.34-.74-.54-1.17-.59-.42-.05-.82.1-1.17.46-.45.45-.6,1.02-.44,1.67l-.67.22-2.71-3.48,2.69-2.69.61.61-2.08,2.08,1.46,1.91c.09-.37.29-.72.61-1.05Z"/>
  <text class="cls-27" transform="translate(17.44 435.16) rotate(-90)"><tspan x="0" y="0">相对性能预测评分</tspan></text>
  <g class="cls-31">
    <g>
      <polygon class="cls-18" points="78.42 356.45 78.42 493.7 90.79 475.07 103.17 435.87 115.54 394.09 127.92 364.92 140.29 340.82 152.67 340.45 165.04 335.81 177.42 334.27 189.8 333.88 202.17 322.78 214.55 321.61 226.92 312.66 239.3 310.25 251.67 310.25 264.05 310.25 276.43 310.25 288.8 310.25 301.18 310.28 313.55 310.28 325.93 310.28 338.3 310.28 350.68 309.55 363.05 308.81 375.43 308.81 387.81 308.81 400.18 308.81 412.56 308.47 424.93 308.47 437.31 308.47 449.68 308.47 449.68 303.2 437.31 303.2 424.93 303.2 412.56 303.2 400.18 304.34 387.81 304.34 375.43 304.34 363.05 304.34 350.68 304.15 338.3 303.94 325.93 303.94 313.55 303.94 301.18 303.94 288.8 304.4 276.43 304.4 264.05 304.4 251.67 304.4 239.3 304.4 226.92 304.05 214.55 306.2 202.17 306.36 189.8 306.84 177.42 308.25 165.04 308.71 152.67 309.08 140.29 311.16 127.92 312.37 115.54 322.65 103.17 325.53 90.79 335.15 78.42 356.45"/>
      <polygon class="cls-6" points="78.42 356.45 78.42 493.7 90.79 475.07 103.17 435.87 115.54 394.09 127.92 364.92 140.29 340.82 152.67 340.45 165.04 335.81 177.42 334.27 189.8 333.88 202.17 322.78 214.55 321.61 226.92 312.66 239.3 310.25 251.67 310.25 264.05 310.25 276.43 310.25 288.8 310.25 301.18 310.28 313.55 310.28 325.93 310.28 338.3 310.28 350.68 309.55 363.05 308.81 375.43 308.81 387.81 308.81 400.18 308.81 412.56 308.47 424.93 308.47 437.31 308.47 449.68 308.47 449.68 303.2 437.31 303.2 424.93 303.2 412.56 303.2 400.18 304.34 387.81 304.34 375.43 304.34 363.05 304.34 350.68 304.15 338.3 303.94 325.93 303.94 313.55 303.94 301.18 303.94 288.8 304.4 276.43 304.4 264.05 304.4 251.67 304.4 239.3 304.4 226.92 304.05 214.55 306.2 202.17 306.36 189.8 306.84 177.42 308.25 165.04 308.71 152.67 309.08 140.29 311.16 127.92 312.37 115.54 322.65 103.17 325.53 90.79 335.15 78.42 356.45"/>
    </g>
  </g>
  <g class="cls-44">
    <g>
      <polygon class="cls-17" points="78.42 286.14 78.42 292.21 90.79 290.04 103.17 289.21 115.54 288.81 127.92 288.81 140.29 288.81 152.67 286.95 165.04 286.95 177.42 286.56 189.8 286.56 202.17 286.56 214.55 286.56 226.92 286.56 239.3 286.48 251.67 286.48 264.05 286.45 276.43 286.45 288.8 286.52 301.18 286.52 313.55 286.52 325.93 286.52 338.3 286.52 350.68 286.52 363.05 286.37 375.43 286.37 387.81 286.37 400.18 286.37 412.56 286.37 424.93 286.18 437.31 286.18 449.68 286.18 449.68 284.2 437.31 284.2 424.93 284.2 412.56 284.38 400.18 284.38 387.81 284.38 375.43 284.38 363.05 284.38 350.68 284.42 338.3 284.42 325.93 284.42 313.55 284.42 301.18 284.42 288.8 284.42 276.43 284.76 264.05 284.76 251.67 285.29 239.3 285.29 226.92 285.35 214.55 285.35 202.17 285.35 189.8 285.35 177.42 285.35 165.04 285.31 152.67 285.31 140.29 284.79 127.92 284.79 115.54 284.79 103.17 285.14 90.79 286.11 78.42 286.14"/>
      <polygon class="cls-8" points="78.42 286.14 78.42 292.21 90.79 290.04 103.17 289.21 115.54 288.81 127.92 288.81 140.29 288.81 152.67 286.95 165.04 286.95 177.42 286.56 189.8 286.56 202.17 286.56 214.55 286.56 226.92 286.56 239.3 286.48 251.67 286.48 264.05 286.45 276.43 286.45 288.8 286.52 301.18 286.52 313.55 286.52 325.93 286.52 338.3 286.52 350.68 286.52 363.05 286.37 375.43 286.37 387.81 286.37 400.18 286.37 412.56 286.37 424.93 286.18 437.31 286.18 449.68 286.18 449.68 284.2 437.31 284.2 424.93 284.2 412.56 284.38 400.18 284.38 387.81 284.38 375.43 284.38 363.05 284.38 350.68 284.42 338.3 284.42 325.93 284.42 313.55 284.42 301.18 284.42 288.8 284.42 276.43 284.76 264.05 284.76 251.67 285.29 239.3 285.29 226.92 285.35 214.55 285.35 202.17 285.35 189.8 285.35 177.42 285.35 165.04 285.31 152.67 285.31 140.29 284.79 127.92 284.79 115.54 284.79 103.17 285.14 90.79 286.11 78.42 286.14"/>
    </g>
  </g>
  <g class="cls-40">
    <polyline class="cls-3" points="78.42 425.08 90.79 405.11 103.17 380.7 115.54 358.37 127.92 338.64 140.29 325.99 152.67 324.77 165.04 322.26 177.42 321.26 189.8 320.36 202.17 314.57 214.55 313.91 226.92 308.35 239.3 307.33 251.67 307.33 264.05 307.33 276.43 307.33 288.8 307.33 301.18 307.11 313.55 307.11 325.93 307.11 338.3 307.11 350.68 306.85 363.05 306.57 375.43 306.57 387.81 306.57 400.18 306.57 412.56 305.83 424.93 305.83 437.31 305.83 449.68 305.83"/>
  </g>
  <g class="cls-13">
    <polyline class="cls-5" points="78.42 289.17 90.79 288.07 103.17 287.17 115.54 286.8 127.92 286.8 140.29 286.8 152.67 286.13 165.04 286.13 177.42 285.95 189.8 285.95 202.17 285.95 214.55 285.95 226.92 285.95 239.3 285.89 251.67 285.89 264.05 285.6 276.43 285.6 288.8 285.47 301.18 285.47 313.55 285.47 325.93 285.47 338.3 285.47 350.68 285.47 363.05 285.38 375.43 285.38 387.81 285.38 400.18 285.38 412.56 285.38 424.93 285.19 437.31 285.19 449.68 285.19"/>
  </g>
  <line class="cls-1" x1="59.85" y1="504.18" x2="59.85" y2="273.72"/>
  <line class="cls-1" x1="468.25" y1="504.18" x2="468.25" y2="273.72"/>
  <line class="cls-1" x1="59.85" y1="504.18" x2="468.25" y2="504.18"/>
  <line class="cls-1" x1="59.85" y1="273.72" x2="468.25" y2="273.72"/>
  <rect class="cls-23" x="376.71" y="462.54" width="86.04" height="36.14"/>
  <rect class="cls-7" x="376.71" y="462.54" width="86.04" height="36.14"/>
  <polyline class="cls-3" points="381.11 471.46 392.11 471.46 403.11 471.46"/>
  <polygon class="cls-26" points="413.69 467.26 418.17 473.56 418.17 467.26 419.09 467.26 419.09 475.31 418.27 475.31 413.79 469 413.79 475.31 412.87 475.31 412.87 467.26 413.69 467.26"/>
  <path class="cls-26" d="M424.36,472.78c-.46-.11-.89-.18-1.27-.18-.48,0-.85.1-1.11.28-.26.19-.39.44-.39.77,0,.31.11.55.33.73.22.18.51.25.86.25.43,0,.8-.12,1.11-.37.31-.25.46-.61.46-1.06v-.42ZM423.1,469.47c.64,0,1.17.2,1.58.59.41.4.62.95.62,1.67v3.57h-.83c-.02-.37-.04-.62-.04-.73-.18.29-.42.49-.71.63-.3.13-.64.21-1.01.21s-.71-.07-1.03-.2c-.32-.13-.57-.33-.76-.59-.2-.26-.29-.59-.29-.97,0-.56.22-1,.68-1.33.46-.33,1.06-.49,1.78-.49.41,0,.84.06,1.28.17v-.1c0-.53-.11-.92-.33-1.19s-.54-.4-.98-.4c-.35,0-.65.08-.88.22-.24.15-.44.36-.59.65l-.71-.41c.18-.4.46-.7.86-.95.4-.24.86-.36,1.38-.36Z"/>
  <path class="cls-26" d="M426.9,475.31v-5.71h.94v5.71h-.94ZM428.5,468.58c-.18,0-.32-.06-.44-.19-.12-.12-.18-.28-.18-.45s.06-.32.18-.45c.12-.12.26-.19.44-.19s.32.07.44.19c.12.13.19.28.19.45s-.07.33-.19.45c-.12.13-.26.19-.44.19ZM426.24,468.58c-.17,0-.3-.06-.42-.19-.12-.12-.19-.28-.19-.45s.07-.32.19-.45c.12-.12.25-.19.43-.19.17,0,.31.07.43.19.12.13.19.28.19.45s-.07.33-.19.45c-.12.13-.26.19-.44.19Z"/>
  <polygon class="cls-26" points="429.86 469.6 431.62 474.07 433.27 469.6 434.24 469.6 431.94 475.31 431.18 475.31 428.79 469.6 429.86 469.6"/>
  <path class="cls-26" d="M437.54,470.33c-.42,0-.77.13-1.08.4s-.49.65-.57,1.15h3.11c-.02-.48-.17-.87-.43-1.14-.26-.26-.62-.41-1.03-.41ZM437.57,469.47c.48,0,.91.12,1.29.35.37.23.66.54.86.93.2.4.3.84.3,1.32,0,.21-.02.4-.04.56h-4.11c.03.66.22,1.14.56,1.46.33.32.76.47,1.28.47.64,0,1.1-.25,1.39-.77l.71.41c-.15.4-.43.69-.83.9-.4.2-.85.31-1.33.31-.52,0-.99-.11-1.41-.34-.42-.23-.76-.57-1-1.02-.24-.45-.36-.99-.36-1.63,0-.6.12-1.13.36-1.58.24-.44.57-.78.99-1.02.41-.23.86-.35,1.35-.35Z"/>
  <path class="cls-26" d="M447.84,471.98v-.88h2.68v3.13c-.24.35-.61.64-1.09.86-.49.22-1.04.33-1.66.33-.75,0-1.41-.17-2-.52-.59-.34-1.06-.83-1.39-1.46-.33-.64-.5-1.36-.5-2.18s.17-1.52.5-2.14c.33-.63.79-1.11,1.38-1.46.58-.35,1.23-.53,1.95-.53.63,0,1.19.14,1.68.41.5.28.86.65,1.09,1.13l-.79.46c-.18-.33-.44-.59-.79-.79-.35-.2-.77-.31-1.23-.31-.54,0-1.01.14-1.43.41-.42.28-.74.66-.97,1.14-.23.48-.34,1.05-.34,1.68s.12,1.22.36,1.72.58.88,1.02,1.14c.44.28.95.41,1.53.41.75,0,1.31-.2,1.71-.62v-1.94h-1.71Z"/>
  <path class="cls-26" d="M455.94,472.12l-1.36-3.55-1.3,3.55h2.66ZM455.03,467.26l3.23,8.05h-1.09l-.89-2.31h-3.33l-.85,2.31h-.99l3.09-8.05h.83Z"/>
  <polyline class="cls-5" points="381.11 487.88 392.11 487.88 403.11 487.88"/>
  <path class="cls-26" d="M415.57,490.88c.68,0,1.2-.12,1.54-.37.34-.24.52-.59.52-1.05s-.18-.8-.52-1.07c-.34-.25-.86-.38-1.54-.38h-1.73v2.87h1.73ZM413.85,484.55v2.64h1.4c.6,0,1.08-.11,1.41-.35.33-.23.51-.56.51-.98,0-.4-.18-.72-.51-.96-.34-.23-.81-.35-1.41-.35h-1.4ZM417.16,487.51c1,.29,1.51.93,1.51,1.95,0,.73-.25,1.29-.74,1.68-.49.4-1.22.59-2.18.59h-2.88v-8.05h2.54c.56,0,1.06.09,1.47.26.42.18.74.43.97.76.22.33.34.72.34,1.15,0,.77-.35,1.32-1.03,1.65Z"/>
  <path class="cls-26" d="M421.01,484.54v3.04h1.38c.62,0,1.09-.13,1.42-.41.33-.27.49-.64.49-1.1s-.17-.81-.49-1.1c-.33-.29-.8-.43-1.42-.43h-1.38ZM426.13,491.73h-1.2l-2.33-3.3h-1.6v3.3h-.98v-8.05h2.48c.55,0,1.03.1,1.46.3.43.2.76.48,1,.85s.36.78.36,1.24c0,.53-.15.99-.45,1.38-.31.39-.72.66-1.24.83l2.5,3.47Z"/>
  <rect class="cls-26" x="427.09" y="483.68" width=".98" height="8.05"/>
  <path class="cls-26" d="M432.05,490.86c1.01,0,1.8-.28,2.38-.83s.86-1.33.86-2.34-.3-1.77-.87-2.32c-.57-.55-1.36-.84-2.37-.84h-1.09v6.33h1.09ZM432.18,483.68c.78,0,1.48.17,2.11.47.63.32,1.12.78,1.48,1.39.35.6.54,1.32.54,2.16s-.19,1.57-.54,2.18-.85,1.07-1.47,1.39c-.63.32-1.33.47-2.12.47h-2.2v-8.05h2.2Z"/>
  <path class="cls-26" d="M441.38,488.4v-.88h2.68v3.14c-.24.35-.61.64-1.09.86-.49.22-1.04.33-1.66.33-.75,0-1.41-.17-2-.52-.59-.34-1.06-.82-1.39-1.46-.33-.64-.5-1.36-.5-2.18s.17-1.52.5-2.15c.33-.63.79-1.11,1.38-1.46.58-.35,1.23-.53,1.95-.53.63,0,1.19.14,1.68.41.5.28.86.65,1.09,1.13l-.79.46c-.18-.33-.44-.59-.79-.79-.35-.2-.77-.31-1.23-.31-.54,0-1.01.14-1.43.41-.42.28-.74.66-.97,1.14-.23.48-.34,1.04-.34,1.68s.12,1.22.36,1.72.58.88,1.02,1.14c.44.28.95.41,1.53.41.75,0,1.31-.2,1.71-.62v-1.94h-1.71Z"/>
  <polygon class="cls-26" points="450.06 488 446.52 488 446.52 490.86 450.6 490.86 450.6 491.73 445.54 491.73 445.54 483.67 450.48 483.67 450.48 484.54 446.52 484.54 446.52 487.14 450.06 487.14 450.06 488"/>
  <text class="cls-28" transform="translate(231.44 539.67)"><tspan x="0" y="0">种群迭代次数</tspan></text>
</svg>